<svg width="145" height="42" viewBox="0 0 145 42" fill="none" xmlns="http://www.w3.org/2000/svg">
<g clip-path="url(#clip0_1315_1322)">
<path d="M66.922 27.542H59.694L58.498 31H54.676L61.202 12.826H65.44L71.966 31H68.118L66.922 27.542ZM65.934 24.63L63.308 17.038L60.682 24.63H65.934Z" fill="#040132"/>
<path d="M76.2514 14.88C75.61 14.88 75.0727 14.6806 74.6394 14.282C74.2234 13.866 74.0154 13.3546 74.0154 12.748C74.0154 12.1413 74.2234 11.6386 74.6394 11.24C75.0727 10.824 75.61 10.616 76.2514 10.616C76.8927 10.616 77.4214 10.824 77.8374 11.24C78.2707 11.6386 78.4874 12.1413 78.4874 12.748C78.4874 13.3546 78.2707 13.866 77.8374 14.282C77.4214 14.6806 76.8927 14.88 76.2514 14.88ZM78.0454 16.596V31H74.4054V16.596H78.0454Z" fill="#040132"/>
<path d="M95.4217 16.596L86.5037 37.812H82.6297L85.7497 30.636L79.9777 16.596H84.0597L87.7777 26.658L91.5477 16.596H95.4217Z" fill="#040132"/>
<path d="M111.164 16.596L102.246 37.812H98.3719L101.492 30.636L95.7199 16.596H99.8019L103.52 26.658L107.29 16.596H111.164Z" fill="#040132"/>
<path d="M121.108 16.388C122.824 16.388 124.211 16.934 125.268 18.026C126.325 19.1006 126.854 20.6086 126.854 22.55V31H123.214V23.044C123.214 21.9 122.928 21.0246 122.356 20.418C121.784 19.794 121.004 19.482 120.016 19.482C119.011 19.482 118.213 19.794 117.624 20.418C117.052 21.0246 116.766 21.9 116.766 23.044V31H113.126V16.596H116.766V18.39C117.251 17.766 117.867 17.2806 118.612 16.934C119.375 16.57 120.207 16.388 121.108 16.388Z" fill="#040132"/>
<path d="M129.38 23.746C129.38 22.29 129.666 20.9986 130.238 19.872C130.827 18.7453 131.616 17.8786 132.604 17.272C133.609 16.6653 134.727 16.362 135.958 16.362C137.032 16.362 137.968 16.5786 138.766 17.012C139.58 17.4453 140.23 17.9913 140.716 18.65V16.596H144.382V31H140.716V28.894C140.248 29.57 139.598 30.1333 138.766 30.584C137.951 31.0173 137.006 31.234 135.932 31.234C134.718 31.234 133.609 30.922 132.604 30.298C131.616 29.674 130.827 28.7986 130.238 27.672C129.666 26.528 129.38 25.2193 129.38 23.746ZM140.716 23.798C140.716 22.914 140.542 22.16 140.196 21.536C139.849 20.8946 139.381 20.4093 138.792 20.08C138.202 19.7333 137.57 19.56 136.894 19.56C136.218 19.56 135.594 19.7246 135.022 20.054C134.45 20.3833 133.982 20.8686 133.618 21.51C133.271 22.134 133.098 22.8793 133.098 23.746C133.098 24.6126 133.271 25.3753 133.618 26.034C133.982 26.6753 134.45 27.1693 135.022 27.516C135.611 27.8626 136.235 28.036 136.894 28.036C137.57 28.036 138.202 27.8713 138.792 27.542C139.381 27.1953 139.849 26.71 140.196 26.086C140.542 25.4446 140.716 24.682 140.716 23.798Z" fill="#040132"/>
<circle cx="21" cy="21" r="19" stroke="#5147FE" stroke-width="4"/>
<circle cx="21" cy="21" r="14.2124" fill="url(#paint0_linear_1315_1322)" fill-opacity="0.6" stroke="white" stroke-width="0.424779"/>
<mask id="mask0_1315_1322" style="mask-type:alpha" maskUnits="userSpaceOnUse" x="7" y="7" width="28" height="28">
<circle cx="21" cy="21" r="14" fill="#635AFF"/>
</mask>
<g mask="url(#mask0_1315_1322)">
<path opacity="0.2" d="M5.69025 28.5139L4.77411 25.6977L38.2549 12.4757L39.0004 14.7675L5.69025 28.5139Z" fill="url(#paint1_linear_1315_1322)"/>
<path opacity="0.5" d="M0.298334 39.3552L-1.30078 34.4395L57.1395 11.3607L58.4408 15.361L0.298334 39.3552Z" fill="url(#paint2_linear_1315_1322)"/>
<g filter="url(#filter0_f_1315_1322)">
<path d="M-7.19324 16.1335L-4.96315 20.1291L40.5678 0.708698L37.3156 -3.28687L-7.19324 16.1335Z" fill="white" fill-opacity="0.4"/>
</g>
</g>
</g>
<defs>
<filter id="filter0_f_1315_1322" x="-18.8748" y="-14.9683" width="71.1241" height="46.7787" filterUnits="userSpaceOnUse" color-interpolation-filters="sRGB">
<feFlood flood-opacity="0" result="BackgroundImageFix"/>
<feBlend mode="normal" in="SourceGraphic" in2="BackgroundImageFix" result="shape"/>
<feGaussianBlur stdDeviation="5.84071" result="effect1_foregroundBlur_1315_1322"/>
</filter>
<linearGradient id="paint0_linear_1315_1322" x1="21" y1="34.51" x2="21" y2="7" gradientUnits="userSpaceOnUse">
<stop offset="0.262951" stop-color="#7972FF"/>
<stop offset="1" stop-color="#D1CEFF"/>
</linearGradient>
<linearGradient id="paint1_linear_1315_1322" x1="-4941.46" y1="5145.79" x2="-4100.1" y2="6854.12" gradientUnits="userSpaceOnUse">
<stop offset="0.2" stop-color="white"/>
</linearGradient>
<linearGradient id="paint2_linear_1315_1322" x1="-7394.81" y1="8587.1" x2="-5927.23" y2="11567.5" gradientUnits="userSpaceOnUse">
<stop offset="0.2" stop-color="white"/>
</linearGradient>
<clipPath id="clip0_1315_1322">
<rect width="145" height="42" fill="white"/>
</clipPath>
</defs>
</svg>
