<svg width="90" height="26" viewBox="0 0 90 26" fill="none" xmlns="http://www.w3.org/2000/svg">
<path d="M33.7595 19.0664C34.2499 19.5652 34.8769 19.9056 35.5603 20.0443C36.2438 20.1831 36.9528 20.1136 37.597 19.8451C38.241 19.5765 38.7911 19.1208 39.177 18.5363C39.5628 17.9517 39.767 17.2648 39.7634 16.563V2.31372H43.3316V16.5826C43.3419 17.5223 43.1635 18.4543 42.8069 19.3227C42.4505 20.191 41.9232 20.978 41.2571 21.6362C40.5992 22.2953 39.8187 22.8173 38.9602 23.1722C38.1016 23.5272 37.182 23.7082 36.2537 23.7048C35.3212 23.7209 34.3949 23.5455 33.5318 23.1894C32.6687 22.8334 31.8867 22.304 31.2334 21.6337L33.7668 19.0664H33.7595Z" fill="#2F4254"/>
<path d="M50.6265 2.3114H54.1434V23.6902H50.6265V2.3114Z" fill="#2F4254"/>
<path d="M75.8725 18.0616C75.2211 18.7247 74.4436 19.2487 73.5864 19.6024C72.7294 19.9562 71.8102 20.1324 70.8838 20.1204C69.9538 20.1306 69.0312 19.9536 68.1702 19.5995C67.3092 19.2455 66.5272 18.7218 65.8702 18.0591C65.2132 17.3964 64.6945 16.6082 64.3447 15.7408C63.9948 14.8733 63.8208 13.9442 63.8329 13.008C63.8329 11.1224 64.577 9.31396 65.9017 7.98059C67.2262 6.64723 69.0227 5.89816 70.8961 5.89816C72.7693 5.89816 74.5658 6.64723 75.8905 7.98059C77.215 9.31396 77.9592 11.1224 77.9592 13.008C77.9677 13.9474 77.7885 14.8788 77.432 15.747C77.0757 16.6152 76.5494 17.4024 75.8847 18.0616H75.8725ZM78.374 5.45102C76.889 3.96153 74.9991 2.94815 72.9426 2.53876C70.886 2.12937 68.7551 2.34232 66.8186 3.15072C64.8822 3.95913 63.227 5.32676 62.0619 7.08109C60.8967 8.8354 60.274 10.8978 60.272 13.008C60.268 15.121 60.8877 17.1875 62.0526 18.9454C63.2174 20.7032 64.8748 22.0729 66.8144 22.8808C68.7541 23.6887 70.8884 23.8982 72.9465 23.4828C75.0047 23.0674 76.8938 22.0459 78.374 20.5479C79.3926 19.5818 80.1991 18.4119 80.7418 17.1134C81.2844 15.8149 81.5512 14.4165 81.5249 13.008C81.5448 11.5979 81.2753 10.1989 80.7331 8.89846C80.1909 7.59809 79.3879 6.42444 78.374 5.45102Z" fill="#2F4254"/>
<path d="M15.8013 16.5629H22.042L18.9253 10.2933L15.8013 16.5629ZM23.8065 20.1204H14.044L12.238 23.6925H8.29395L18.9253 2.29407L29.5517 23.6901H25.6052L23.8065 20.1204Z" fill="#2F4254"/>
</svg>
