<svg width="86" height="26" viewBox="0 0 86 26" fill="none" xmlns="http://www.w3.org/2000/svg">
<g clip-path="url(#clip0_1350_1471)">
<path d="M53.2985 20.312C48.3273 23.9973 41.122 25.9636 34.9183 25.9636C26.2197 25.9636 18.3887 22.7277 12.4643 17.3457C11.9989 16.9225 12.4159 16.3457 12.9745 16.6753C19.3681 20.4168 27.2735 22.6677 35.4396 22.6677C40.947 22.6677 47.0054 21.5217 52.5761 19.1435C53.4176 18.7839 54.1214 19.6977 53.2985 20.312Z" fill="#FF9900"/>
<path d="M55.365 17.9337C54.732 17.1173 51.1647 17.548 49.5635 17.739C49.0756 17.7989 49.0012 17.372 49.4406 17.0648C52.2818 15.0536 56.9438 15.6341 57.4875 16.3083C58.0312 16.9862 57.346 21.6865 54.6761 23.9299C54.2665 24.2745 53.8755 24.091 54.058 23.634C54.6575 22.1284 56.0017 18.754 55.365 17.9337Z" fill="#FF9900"/>
<path d="M49.6749 2.86664V0.911611C49.6749 0.615735 49.8984 0.417236 50.1665 0.417236H58.8688C59.148 0.417236 59.3715 0.619481 59.3715 0.911611V2.58574C59.3678 2.86664 59.1332 3.23367 58.7161 3.81419L54.2067 10.2897C55.8824 10.2486 57.6511 10.4995 59.1704 11.3609C59.513 11.5556 59.6061 11.8403 59.6321 12.1212V14.2073C59.6321 14.4919 59.3193 14.8253 58.9917 14.653C56.3143 13.241 52.7582 13.0875 49.7978 14.668C49.4962 14.8328 49.1797 14.5032 49.1797 14.2185V12.2373C49.1797 11.9189 49.1834 11.3759 49.4999 10.8927L54.7243 3.35727H50.1776C49.8984 3.35727 49.6749 3.15877 49.6749 2.86664Z" fill="#221F1F"/>
<path d="M17.9305 15.0649H15.283C15.0298 15.0462 14.8287 14.8552 14.8101 14.6117V0.945277C14.8101 0.671873 15.0372 0.454646 15.3202 0.454646H17.789C18.046 0.465874 18.2508 0.66438 18.2694 0.911567V2.69806H18.3178C18.962 0.971491 20.1722 0.16626 21.8032 0.16626C23.4602 0.16626 24.4954 0.971491 25.2402 2.69806C25.8806 0.971491 27.3366 0.16626 28.8968 0.16626C30.0065 0.16626 31.2204 0.626927 31.9615 1.66062C32.7993 2.81042 32.628 4.4808 32.628 5.9452L32.6243 14.5705C32.6243 14.844 32.3971 15.0649 32.1141 15.0649H29.4703C29.2059 15.0462 28.9937 14.8327 28.9937 14.5705V7.32721C28.9937 6.75043 29.0458 5.31225 28.9192 4.76544C28.7218 3.84786 28.1298 3.58943 27.3627 3.58943C26.7222 3.58943 26.0519 4.02014 25.7801 4.70927C25.5083 5.3984 25.5343 6.55193 25.5343 7.32721V14.5705C25.5343 14.844 25.3072 15.0649 25.0242 15.0649H22.3804C22.1122 15.0462 21.9037 14.8327 21.9037 14.5705L21.9 7.32721C21.9 5.80288 22.1495 3.55947 20.269 3.55947C18.3662 3.55947 18.4407 5.7467 18.4407 7.32721V14.5705C18.4407 14.844 18.2135 15.0649 17.9305 15.0649Z" fill="#221F1F"/>
<path d="M66.8637 0.16626C70.7922 0.16626 72.9184 3.55947 72.9184 7.87401C72.9184 12.0425 70.5688 15.3496 66.8637 15.3496C63.0059 15.3496 60.9058 11.9563 60.9058 7.72795C60.9058 3.47333 63.032 0.16626 66.8637 0.16626ZM66.886 2.95648C64.9348 2.95648 64.8119 5.6306 64.8119 7.29724C64.8119 8.96763 64.7859 12.5331 66.8637 12.5331C68.9155 12.5331 69.0123 9.65676 69.0123 7.90397C69.0123 6.75043 68.9639 5.37218 68.6176 4.27856C68.3197 3.32726 67.7276 2.95648 66.886 2.95648Z" fill="#221F1F"/>
<path d="M78.0122 15.0649H75.3759C75.1115 15.0462 74.8992 14.8327 74.8992 14.5705L74.8955 0.900331C74.9178 0.649398 75.1375 0.454646 75.4057 0.454646H77.8596C78.0904 0.465874 78.2804 0.623183 78.3325 0.836663V2.92652H78.3809C79.1219 1.05763 80.1608 0.16626 81.9892 0.16626C83.177 0.16626 84.3351 0.596966 85.0798 1.77672C85.7725 2.87034 85.7725 4.70927 85.7725 6.03134V14.6342C85.7427 14.8739 85.523 15.0649 85.2623 15.0649H82.6073C82.3653 15.0462 82.1642 14.8664 82.1381 14.6342V7.2111C82.1381 5.71674 82.3094 3.52951 80.4811 3.52951C79.8369 3.52951 79.2448 3.96396 78.9506 4.62312C78.5782 5.45832 78.5298 6.28977 78.5298 7.2111V14.5705C78.5261 14.844 78.2952 15.0649 78.0122 15.0649Z" fill="#221F1F"/>
<path d="M42.7377 8.5369V7.96013C40.8237 7.96013 38.8017 8.37211 38.8017 10.6417C38.8017 11.7915 39.3938 12.5706 40.4104 12.5706C41.1551 12.5706 41.8217 12.1099 42.2424 11.3608C42.7638 10.4395 42.7377 9.57434 42.7377 8.5369ZM45.4076 15.0274C45.2326 15.1847 44.9794 15.196 44.782 15.0911C43.9032 14.357 43.7468 14.0162 43.2627 13.3159C41.8105 14.8065 40.7827 15.2522 38.8985 15.2522C36.6718 15.2522 34.9365 13.8702 34.9365 11.1024C34.9365 8.94139 36.102 7.4695 37.7591 6.75041C39.1964 6.11372 41.2035 6.00136 42.7377 5.82533V5.48077C42.7377 4.84782 42.7861 4.09877 42.4174 3.55196C42.0935 3.06133 41.4754 2.85908 40.9317 2.85908C39.9226 2.85908 39.0214 3.37968 38.8017 4.45831C38.757 4.69801 38.582 4.93396 38.3437 4.9452L35.7744 4.66805C35.5584 4.61936 35.3201 4.44333 35.3796 4.11C35.9717 0.978965 38.7831 0.0351562 41.3003 0.0351562C42.5887 0.0351562 44.2719 0.37972 45.2884 1.36098C46.5768 2.5707 46.4539 4.18491 46.4539 5.94144V10.0912C46.4539 11.3384 46.9678 11.8852 47.4519 12.5593C47.6232 12.799 47.6604 13.0874 47.4445 13.2672C46.9045 13.7203 45.9438 14.563 45.415 15.0349L45.4076 15.0274Z" fill="#221F1F"/>
<path d="M8.02919 8.5369V7.96013C6.11521 7.96013 4.09323 8.37211 4.09323 10.6417C4.09323 11.7915 4.6853 12.5706 5.70187 12.5706C6.44662 12.5706 7.11316 12.1099 7.53394 11.3608C8.05525 10.4395 8.02919 9.57434 8.02919 8.5369ZM10.6991 15.0274C10.5241 15.1847 10.2709 15.196 10.0735 15.0911C9.19471 14.357 9.03831 14.0162 8.55423 13.3159C7.10199 14.8065 6.07425 15.2522 4.19005 15.2522C1.96327 15.2522 0.228027 13.8702 0.228027 11.1024C0.228027 8.94139 1.39355 7.4695 3.0506 6.75041C4.48795 6.11372 6.49502 6.00136 8.02919 5.82533V5.48077C8.02919 4.84782 8.0776 4.09877 7.70895 3.55196C7.38499 3.06133 6.76686 2.85908 6.22319 2.85908C5.21407 2.85908 4.31293 3.37968 4.09323 4.45831C4.04855 4.69801 3.87353 4.93396 3.63522 4.9452L1.06586 4.66805C0.849886 4.61936 0.611568 4.44333 0.671148 4.11C1.26322 0.978965 4.07461 0.0351562 6.59184 0.0351562C7.88024 0.0351562 9.56336 0.37972 10.5799 1.36098C11.8683 2.5707 11.7454 4.18491 11.7454 5.94144V10.0912C11.7454 11.3384 12.2593 11.8852 12.7434 12.5593C12.9147 12.799 12.9519 13.0874 12.736 13.2672C12.196 13.7203 11.2353 14.563 10.7065 15.0349L10.6991 15.0274Z" fill="#221F1F"/>
</g>
<defs>
<clipPath id="clip0_1350_1471">
<rect width="85.647" height="26" fill="white" transform="translate(0.17627)"/>
</clipPath>
</defs>
</svg>
