<svg width="80" height="26" viewBox="0 0 80 26" fill="none" xmlns="http://www.w3.org/2000/svg">
<path fill-rule="evenodd" clip-rule="evenodd" d="M7.5968 8.52935L20.4434 7.81842C20.8713 7.79465 21.3074 8.17737 21.2225 8.59756C20.302 13.1611 20.4647 17.666 21.4661 22.1259C21.56 22.5441 21.1154 22.905 20.6869 22.905H7.20726C6.77863 22.905 6.47536 22.4015 6.59365 21.9895C7.61744 18.4228 7.88478 14.4141 6.93446 9.28892C6.85638 8.86762 7.16882 8.55283 7.5968 8.52935Z" fill="#268ACB"/>
<path fill-rule="evenodd" clip-rule="evenodd" d="M10.723 10.3993C11.035 10.3993 11.2879 10.652 11.2879 10.964C11.2879 11.276 11.035 11.5293 10.723 11.5293C10.411 11.5293 10.1581 11.276 10.1581 10.964C10.1581 10.652 10.411 10.3993 10.723 10.3993ZM16.5443 12.8972C16.542 12.5972 16.7834 12.3521 17.0834 12.3498C17.3835 12.3473 17.6286 12.5886 17.6309 12.8888L17.6311 12.9081L17.631 12.9123H17.6311V12.9316H17.6333C17.6333 13.9699 17.2124 14.9095 16.5322 15.59C15.8518 16.2704 14.9119 16.6912 13.8737 16.6912C12.8357 16.6912 11.8958 16.2704 11.2155 15.59C10.5351 14.9095 10.1143 13.9699 10.1143 12.9316H10.1164L10.1165 12.9129C10.1165 12.6126 10.3597 12.3694 10.6597 12.3694C10.9599 12.3694 11.203 12.6126 11.203 12.9129V12.9316H11.2051C11.2051 13.6685 11.5038 14.3358 11.9867 14.8187C12.4696 15.3017 13.1368 15.6003 13.8737 15.6003C14.6107 15.6003 15.278 15.3017 15.7609 14.8187C16.2438 14.3358 16.5425 13.6685 16.5425 12.9316H16.5447L16.5445 12.9173V12.9165L16.5443 12.8972ZM17.0246 10.3993C17.3366 10.3993 17.5894 10.652 17.5894 10.964C17.5894 11.276 17.3366 11.5293 17.0246 11.5293C16.7126 11.5293 16.4597 11.276 16.4597 10.964C16.4597 10.652 16.7126 10.3993 17.0246 10.3993Z" fill="white"/>
<path fill-rule="evenodd" clip-rule="evenodd" d="M12.8778 7.66736L12.2935 2.75851L12.566 2.47615C12.5784 2.50187 12.5914 2.5248 12.6051 2.54437C12.7996 2.44764 13.3035 2.16304 13.6535 1.96371C13.769 2.08644 13.933 2.16332 14.115 2.16332C14.3077 2.16332 14.4804 2.07722 14.5964 1.94135L15.8155 2.20526L16.1503 2.41772C16.1503 2.41772 16.6289 6.50298 16.7539 7.6162L12.9078 7.82922L12.8778 7.66736ZM13.3348 1.03249L12.9168 0.323799C12.9168 0.323799 13.097 0.245799 13.1992 0.28969C13.3015 0.333302 13.4233 0.396763 13.4865 0.367409C13.5498 0.338335 13.7787 0.0995898 13.8761 0.0654836C13.9735 0.0313768 14.0027 0.031374 14.0027 0.031374C14.0027 0.031374 14.3047 0.123911 14.3777 0.196877C14.4508 0.270122 14.4898 0.30423 14.5628 0.274876C14.6359 0.245801 14.8452 0.0752683 14.928 0.0654836C15.0109 0.0556989 15.0644 0.0607295 15.0644 0.0607295L14.8387 0.925975C14.7417 0.98077 14.6473 1.03445 14.5626 1.08253C14.5039 1.0237 14.4341 0.977043 14.3573 0.945236C14.2805 0.91343 14.1981 0.8971 14.115 0.897183C13.9311 0.897183 13.7656 0.975458 13.65 1.1007L13.3348 1.03249Z" fill="#8FC43F"/>
<path fill-rule="evenodd" clip-rule="evenodd" d="M12.4008 0.830277C12.3449 0.953285 12.3772 2.22194 12.6054 2.54456C12.7999 2.44783 13.3037 2.16323 13.6537 1.9639C13.7693 2.08663 13.9333 2.16351 14.1152 2.16351C14.308 2.16351 14.4806 2.07741 14.5967 1.94154L15.8296 2.20852C15.8856 2.08551 15.8532 0.816858 15.6251 0.494242C15.428 0.592369 14.9134 0.883116 14.5629 1.08272C14.5041 1.02389 14.4343 0.977233 14.3575 0.945426C14.2807 0.91362 14.1984 0.897291 14.1152 0.897373C13.9313 0.897373 13.7659 0.975648 13.6502 1.10089L12.4008 0.830277Z" fill="#1EAC4B"/>
<path fill-rule="evenodd" clip-rule="evenodd" d="M15.4599 3.81182L17.1729 4.19594L17.231 4.2088H17.2309L17.1729 4.19594L16.4016 7.63596L14.209 7.75757L15.0328 4.08244C15.0759 3.89066 15.2681 3.76877 15.4599 3.81182ZM19.3505 4.68406L20.9319 5.03854C21.1238 5.08132 21.2456 5.27365 21.2025 5.46571L20.7702 7.39442L18.5775 7.51575L19.21 4.6944C19.2578 4.69216 19.3047 4.68853 19.3505 4.68406Z" fill="#DF3286"/>
<path fill-rule="evenodd" clip-rule="evenodd" d="M17.1733 4.19578L17.2313 4.20864C16.9399 3.9917 16.1901 3.49604 16.3717 3.08256C16.5974 2.56873 17.172 2.61597 17.5048 2.93384C17.8374 3.2517 18.0226 3.79545 18.0428 4.12254C18.0428 4.12254 18.2569 4.05572 18.4173 4.13484C18.5777 4.21368 18.6069 4.22821 18.6069 4.22821C18.6069 4.22821 19.411 3.20166 19.9538 3.40546C20.4967 3.60926 20.6483 4.03727 20.4933 4.22346C20.3485 4.39735 19.8753 4.66181 19.2103 4.69424L18.5778 7.51559L16.4019 7.6358L17.1733 4.19578ZM17.6258 3.98527C17.6258 3.98527 17.447 3.29028 17.2027 3.17007C16.9584 3.04985 16.8079 3.09822 16.7379 3.24024C16.668 3.38253 17.1371 3.70851 17.6258 3.98527ZM19.9947 3.82872C19.9947 3.82872 20.1699 3.96934 20.1033 4.07697C20.0368 4.1846 19.4325 4.30845 19.3034 4.31292C19.1744 4.31711 19.0199 4.30901 19.0199 4.30901C19.0199 4.30901 19.3921 3.96682 19.5931 3.85304C19.7942 3.73898 19.9216 3.77476 19.9947 3.82872ZM7.18782 5.88015L9.23288 5.38644L9.86321 7.99784L7.29244 8.14014L6.87178 6.39734C6.81654 6.1681 6.95872 5.9355 7.18782 5.88015ZM11.8327 4.7591L13.7206 4.30342C13.9498 4.24806 14.1825 4.39036 14.2377 4.61932L14.9848 7.71436L12.4141 7.85666L11.6871 4.84465C11.7374 4.81697 11.7858 4.78818 11.8327 4.7591Z" fill="#EF9720"/>
<path fill-rule="evenodd" clip-rule="evenodd" d="M9.2326 5.38653L9.30185 5.37003C8.87375 5.29092 7.80521 5.15477 7.78173 4.61409C7.75246 3.94203 8.39534 3.68874 8.92128 3.85424C9.44708 4.02002 9.93414 4.50702 10.129 4.84781C10.129 4.84781 10.3238 4.66274 10.538 4.66274H10.7912C10.7912 4.66274 11.1127 3.13353 11.8042 3.0656C12.4956 2.99738 12.8853 3.37703 12.8171 3.65967C12.7536 3.92329 12.3847 4.45782 11.6869 4.84473L12.4138 7.85674L9.86293 7.99792L9.2326 5.38653ZM9.60783 4.92077C9.60783 4.92077 9.04784 4.26828 8.72153 4.26828C8.39534 4.26828 8.25894 4.39995 8.25894 4.58977C8.25894 4.7796 8.93579 4.88192 9.60783 4.92077ZM12.072 3.49892C12.072 3.49892 12.335 3.55735 12.3204 3.70831C12.3057 3.85927 11.7214 4.31217 11.5851 4.38513C11.4487 4.45838 11.2782 4.53135 11.2782 4.53135C11.2782 4.53135 11.4974 3.96635 11.6532 3.73739C11.8091 3.5087 11.9649 3.47935 12.072 3.49892Z" fill="#E41F29"/>
<path fill-rule="evenodd" clip-rule="evenodd" d="M29.0048 7.732C31.565 7.732 33.6407 9.80776 33.6407 12.368C33.6407 14.9285 31.565 17.0043 29.0048 17.0043C26.4442 17.0043 24.3687 14.9285 24.3687 12.368V5.18015C24.977 4.51731 25.7029 4.10943 26.545 4.07001V11.959C26.545 13.8894 27.2993 15.5184 28.7875 15.5184C30.5275 15.5184 31.5513 14.108 31.5513 12.368C31.5513 10.6283 30.1409 9.2176 28.4009 9.2176C28.0876 9.2176 27.7851 9.26345 27.4995 9.34871C27.4995 9.34871 27.8957 8.31881 28.6508 7.74542C28.7677 7.73676 28.8857 7.732 29.0048 7.732ZM61.2932 2.83825C61.76 2.83825 62.1852 3.01717 62.5039 3.31016L62.053 3.76137C61.85 3.58329 61.5842 3.4751 61.2932 3.4751C60.6566 3.4751 60.1405 3.99117 60.1405 4.62774C60.1405 5.2643 60.6566 5.78009 61.2932 5.78009C61.5842 5.78009 61.85 5.67218 62.053 5.4941L62.5039 5.94504C62.1852 6.2383 61.76 6.41722 61.2932 6.41722C60.3046 6.41722 59.5034 5.61599 59.5034 4.62774C59.5034 3.63948 60.3046 2.83825 61.2932 2.83825ZM67.1629 3.26599C67.3689 3.0415 67.6096 2.89305 67.885 2.85V3.43652C68.0242 3.26906 68.4245 2.85251 68.9613 2.85251C69.5738 2.85251 69.94 3.14773 70.0734 3.50249C70.1044 3.45944 70.5534 2.85251 71.2014 2.85251C72.1335 2.85251 72.4427 3.46643 72.4427 4.2836V5.87263C72.2084 6.12787 71.9286 6.28498 71.6043 6.30036V4.25005C71.6043 4.25005 71.5716 3.55869 70.9968 3.55869C70.122 3.55869 70.2462 4.24809 70.2025 4.41135V5.87263C69.968 6.12787 69.6884 6.28498 69.3641 6.30036V4.25005C69.3641 4.25005 69.3314 3.55869 68.7569 3.55869C68.1821 3.55869 68.0013 3.95315 68.0013 4.30372V5.87263C67.767 6.12787 67.4874 6.28498 67.1629 6.30036V3.26599ZM64.8383 2.83825C65.8265 2.83825 66.6278 3.63948 66.6278 4.62774C66.6278 5.61599 65.8265 6.41722 64.8383 6.41722C63.85 6.41722 63.0488 5.61599 63.0488 4.62774C63.0488 3.63948 63.85 2.83825 64.8383 2.83825ZM64.8383 3.4751C65.4746 3.4751 65.9907 3.99117 65.9907 4.62774C65.9907 5.2643 65.4746 5.78009 64.8383 5.78009C64.2017 5.78009 63.6857 5.2643 63.6857 4.62774C63.6857 3.99117 64.2017 3.4751 64.8383 3.4751ZM46.8476 7.732C49.4081 7.732 51.4839 9.80776 51.4839 12.368C51.4839 14.9285 49.4081 17.0043 46.8476 17.0043C44.2873 17.0043 42.2116 14.9285 42.2116 12.368V5.18015C42.8199 4.51731 43.5459 4.10943 44.388 4.07001V11.959C44.388 13.8894 45.1422 15.5184 46.6306 15.5184C48.3706 15.5184 49.3944 14.108 49.3944 12.368C49.3944 10.6283 47.984 9.2176 46.244 9.2176C45.9306 9.2176 45.6281 9.26345 45.3427 9.34871C45.3427 9.34871 45.7388 8.31881 46.4939 7.74542C46.6108 7.73676 46.7288 7.732 46.8476 7.732ZM56.5484 8.82286C57.1567 8.16002 57.8828 7.75213 58.7248 7.71271V15.8938C58.1165 16.5567 57.3907 16.9648 56.5484 17.0043V8.82286ZM57.6368 4.13822C58.2389 4.13822 58.7276 4.62662 58.7276 5.2288C58.7276 5.83153 58.2389 6.31993 57.6368 6.31993C57.0343 6.31993 56.5459 5.83153 56.5459 5.2288C56.5459 4.62662 57.0343 4.13822 57.6368 4.13822ZM52.9253 2.51145C53.5336 1.84888 54.2596 1.44072 55.1017 1.4013V15.8938C54.4933 16.5567 53.7673 16.9648 52.9253 17.0043V2.51145ZM38.7053 8.82286C39.3139 8.16002 40.0397 7.75213 40.882 7.71271V15.8938C40.2734 16.5567 39.5476 16.9648 38.7053 17.0043V8.82286ZM39.7936 4.13822C40.3961 4.13822 40.8845 4.62662 40.8845 5.2288C40.8845 5.83153 40.3961 6.31993 39.7936 6.31993C39.1912 6.31993 38.7028 5.83153 38.7028 5.2288C38.7028 4.62662 39.1912 4.13822 39.7936 4.13822ZM35.0822 2.51145C35.6905 1.84888 36.4165 1.44072 37.2586 1.4013V15.8938C36.6502 16.5567 35.9242 16.9648 35.0822 17.0043V2.51145ZM24.3687 22.7921H25.4932C26.2606 22.7921 26.5814 22.451 26.5814 21.9556C26.5814 21.6268 26.3824 21.375 26.0373 21.2981C26.3012 21.2167 26.4393 20.9852 26.4393 20.7252C26.4393 20.2626 26.1105 19.95 25.4283 19.95H24.3687V22.7921ZM25.9317 21.9355C25.9317 22.179 25.7735 22.3009 25.4405 22.3009H25.0061V21.5701H25.4405C25.7735 21.5701 25.9317 21.6959 25.9317 21.9355ZM25.8262 20.7619C25.8262 20.9771 25.6759 21.0948 25.3877 21.0948H25.0061V20.4412H25.3877C25.6759 20.4412 25.8262 20.5385 25.8262 20.7619ZM27.0705 19.95V22.7921H27.7201V19.95H27.0705ZM28.2253 21.371C28.2253 22.2642 28.8183 22.8407 29.6505 22.8407C30.1582 22.8407 30.5642 22.6458 30.82 22.321V21.2248H29.6304V21.6917H30.2027V22.0817C30.0973 22.2237 29.8901 22.3009 29.6587 22.3009C29.2284 22.3009 28.8792 21.9799 28.8792 21.371C28.8792 20.7619 29.2203 20.4412 29.6142 20.4412C29.9186 20.4412 30.1297 20.5751 30.2717 20.8186L30.8119 20.555C30.5642 20.1326 30.142 19.9011 29.5896 19.9011C28.7898 19.9011 28.2253 20.4817 28.2253 21.371ZM52.9571 22.7921H54.0818C54.8492 22.7921 55.1699 22.451 55.1699 21.9556C55.1699 21.6268 54.9708 21.375 54.6259 21.2981C54.8898 21.2167 55.0279 20.9852 55.0279 20.7252C55.0279 20.2626 54.6988 19.95 54.0167 19.95H52.9571V22.7921ZM54.5202 21.9355C54.5202 22.179 54.362 22.3009 54.029 22.3009H53.5946V21.5701H54.029C54.362 21.5701 54.5202 21.6959 54.5202 21.9355ZM54.4148 20.7619C54.4148 20.9771 54.2644 21.0948 53.9762 21.0948H53.5946V20.4412H53.9762C54.2644 20.4412 54.4148 20.5385 54.4148 20.7619ZM55.6588 19.95V22.7921H56.3086V19.95H55.6588ZM56.814 21.371C56.814 22.2642 57.4067 22.8407 58.2389 22.8407C58.7466 22.8407 59.1525 22.6458 59.4083 22.321V21.2248H58.2188V21.6917H58.7913V22.0817C58.6857 22.2237 58.4785 22.3009 58.2473 22.3009C57.8168 22.3009 57.4676 21.9799 57.4676 21.371C57.4676 20.7619 57.8087 20.4412 58.2026 20.4412C58.507 20.4412 58.7181 20.5751 58.8604 20.8186L59.4002 20.555C59.1525 20.1326 58.7304 19.9011 58.1783 19.9011C57.3782 19.9011 56.814 20.4817 56.814 21.371ZM32.4663 21.371C32.4663 22.236 32.9818 22.8407 33.79 22.8407C34.3055 22.8407 34.6913 22.5972 34.8982 22.2642L34.6061 22.0817C34.3908 22.3819 34.1392 22.5161 33.8021 22.5161C33.2499 22.5161 32.8317 22.1141 32.8317 21.371C32.8317 20.628 33.2499 20.2259 33.8021 20.2259C34.1392 20.2259 34.3908 20.3599 34.6061 20.6604L34.8982 20.4778C34.6913 20.1449 34.3055 19.9011 33.79 19.9011C32.9818 19.9011 32.4663 20.5061 32.4663 21.371ZM35.4079 22.7921H35.7649V21.4401H37.251V22.7921H37.6083V19.95H37.251V21.1233H35.7649V19.95H35.4079V22.7921ZM40.6757 21.371C40.6757 20.5469 40.213 19.9011 39.409 19.9011C38.601 19.9011 38.1381 20.5469 38.1381 21.371C38.1381 22.1952 38.601 22.8407 39.409 22.8407C40.213 22.8407 40.6757 22.1952 40.6757 21.371ZM38.5035 21.371C38.5035 20.6685 38.8566 20.2259 39.409 20.2259C39.9569 20.2259 40.3103 20.6685 40.3103 21.371C40.3103 22.0733 39.9569 22.5161 39.409 22.5161C38.8566 22.5161 38.5035 22.0733 38.5035 21.371ZM41.2259 19.95V22.7921H41.5831V19.95H41.2259ZM42.133 21.371C42.133 22.236 42.6488 22.8407 43.4568 22.8407C43.9723 22.8407 44.3581 22.5972 44.5652 22.2642L44.2728 22.0817C44.0575 22.3819 43.8059 22.5161 43.4688 22.5161C42.9166 22.5161 42.4984 22.1141 42.4984 21.371C42.4984 20.628 42.9166 20.2259 43.4688 20.2259C43.8059 20.2259 44.0575 20.3599 44.2728 20.6604L44.5652 20.4778C44.3581 20.1449 43.9723 19.9011 43.4568 19.9011C42.6488 19.9011 42.133 20.5061 42.133 21.371ZM45.0746 22.7921H46.8814V22.4753H45.4319V21.4845H46.7028V21.1681H45.4319V20.2665H46.8448V19.95H45.0746V22.7921ZM48.3572 22.5161C48.0243 22.5161 47.7358 22.3942 47.4802 22.1222L47.2079 22.3495C47.5127 22.6744 47.8943 22.8407 48.353 22.8407C48.9619 22.8407 49.3234 22.5119 49.3234 22.0451C49.3234 21.5416 49.0108 21.3263 48.3083 21.1396C47.882 21.0258 47.7033 20.839 47.7033 20.6322C47.7033 20.3926 47.878 20.2259 48.2392 20.2259C48.5113 20.2259 48.7427 20.3439 48.9538 20.555L49.2138 20.3397C48.9619 20.0596 48.613 19.9011 48.2311 19.9011C47.6709 19.9011 47.3379 20.2055 47.3379 20.6322C47.3379 20.9729 47.5289 21.2816 48.211 21.4563C48.7469 21.5944 48.958 21.7322 48.958 22.0652C48.958 22.321 48.7265 22.5161 48.3572 22.5161ZM61.1967 22.7921H62.1226C62.9792 22.7921 63.4707 22.26 63.4707 21.371C63.4707 20.4859 62.9792 19.95 62.1226 19.95H61.1967V22.7921ZM61.5543 22.4753V20.2665H62.0941C62.7357 20.2665 63.105 20.6685 63.105 21.371C63.105 22.0775 62.7357 22.4753 62.0941 22.4753H61.5543ZM64.0004 22.7921H65.807V22.4753H64.3577V21.4845H65.6283V21.1681H64.3577V20.2665H65.7706V19.95H64.0004V22.7921ZM67.169 19.95L66.0728 22.7921H66.4668L66.7346 22.0571H67.9934L68.2613 22.7921H68.6552L67.559 19.95H67.169ZM67.3642 20.3235L67.8797 21.7403H66.8484L67.3642 20.3235ZM69.0835 22.7921H70.8497V22.4753H69.4407V19.95H69.0835V22.7921ZM72.2442 22.5161C71.9112 22.5161 71.623 22.3942 71.3672 22.1222L71.0949 22.3495C71.3996 22.6744 71.7812 22.8407 72.24 22.8407C72.8489 22.8407 73.2104 22.5119 73.2104 22.0451C73.2104 21.5416 72.8978 21.3266 72.1953 21.1396C71.7689 21.0261 71.5906 20.839 71.5906 20.6322C71.5906 20.3926 71.765 20.2259 72.1262 20.2259C72.3982 20.2259 72.6297 20.3439 72.8411 20.555L73.1008 20.3397C72.8489 20.0596 72.5 19.9011 72.1181 19.9011C71.5579 19.9011 71.2249 20.2055 71.2249 20.6322C71.2249 20.9729 71.4159 21.2813 72.098 21.4563C72.6339 21.5938 72.845 21.7322 72.845 22.0652C72.845 22.321 72.6135 22.5161 72.2442 22.5161Z" fill="#268ACB"/>
</svg>
