<svg width="80" height="26" viewBox="0 0 80 26" fill="none" xmlns="http://www.w3.org/2000/svg">
<g clip-path="url(#clip0_84_1274)">
<mask id="mask0_84_1274" style="mask-type:luminance" maskUnits="userSpaceOnUse" x="0" y="0" width="80" height="26">
<path d="M79.0574 0H0.617676V25.8635H79.0574V0Z" fill="white"/>
</mask>
<g mask="url(#mask0_84_1274)">
<path d="M11.8608 25.7507C11.7193 25.7488 11.5803 25.7139 11.4545 25.6489L1.03634 19.7475C0.910112 19.6761 0.804906 19.5725 0.731384 19.4471C0.657862 19.3218 0.618635 19.1791 0.617679 19.0337V0.895895C0.617395 0.788712 0.638208 0.682533 0.67892 0.583458C0.719632 0.484383 0.77944 0.394368 0.854906 0.31859C0.930373 0.242811 1.02001 0.182764 1.11866 0.1419C1.2173 0.101037 1.32302 0.0801625 1.42973 0.0804784H22.279C22.3857 0.0801617 22.4914 0.101044 22.5901 0.141923C22.6887 0.182801 22.7784 0.24287 22.8538 0.318674C22.9293 0.394478 22.9891 0.484521 23.0299 0.583624C23.0706 0.682727 23.0914 0.788933 23.091 0.896139V19.0337C23.09 19.1791 23.0508 19.3217 22.9772 19.447C22.9037 19.5723 22.7985 19.6759 22.6723 19.7473L12.254 25.6489C12.1271 25.7254 12.0005 25.7507 11.8608 25.7507ZM2.25466 18.5621L11.8605 23.9918L21.4666 18.5621V1.72425H2.25466V18.5621Z" fill="black"/>
<path d="M11.8608 17.5424C11.7194 17.5404 11.5803 17.5055 11.4546 17.4404L8.15536 15.5667C8.02915 15.4954 7.92395 15.3918 7.85043 15.2665C7.77691 15.1411 7.73767 14.9985 7.73669 14.8531V11.4113H9.37343V14.3686L11.8608 15.7707L14.7667 14.1265L15.5661 15.5537L12.2669 17.4277C12.1271 17.5041 12.0003 17.5424 11.8608 17.5424Z" fill="black"/>
<path d="M11.861 21.6466C11.7196 21.6445 11.5806 21.6097 11.455 21.5448L4.58944 17.6571C4.46324 17.5858 4.35806 17.4822 4.28454 17.3568C4.21102 17.2316 4.17178 17.089 4.17078 16.9435V8.04694C4.17044 7.93971 4.1912 7.83347 4.23189 7.73433C4.27256 7.6352 4.33237 7.54513 4.40783 7.4693C4.48331 7.39347 4.57296 7.33338 4.67164 7.29249C4.77033 7.25159 4.87608 7.23071 4.98283 7.23102H15.0584V8.87524H5.79513V16.4717L11.8355 19.8876L17.8758 16.4717V12.9155H19.538V16.9435C19.5371 17.089 19.4978 17.2316 19.4243 17.3568C19.3508 17.4822 19.2456 17.5858 19.1194 17.6571L12.2543 21.5448C12.1273 21.6212 12.0004 21.6466 11.861 21.6466Z" fill="black"/>
<path d="M19.5379 9.78022H17.901V5.2936H7.06409V3.64936H18.7132C18.82 3.64904 18.9257 3.66992 19.0244 3.7108C19.123 3.75168 19.2126 3.81175 19.2882 3.88755C19.3636 3.96335 19.4234 4.0534 19.4641 4.1525C19.5048 4.2516 19.5256 4.35781 19.5253 4.46501V9.78022H19.5379ZM30.8552 11.4795C30.8552 7.96881 33.4532 5.26558 37.0231 5.26558C39.1724 5.26558 41.0788 6.3358 42.1066 8.0253L39.7703 9.39581C39.247 8.47581 38.2192 7.93146 37.0231 7.93146C34.9297 7.93146 33.5653 9.33956 33.5653 11.4795C33.5653 13.6197 34.9297 15.0276 37.0231 15.0276C38.2192 15.0276 39.2659 14.4833 39.7703 13.5635L42.1066 14.934C41.0974 16.6235 39.191 17.6934 37.0231 17.6934C33.4532 17.6748 30.8552 14.9902 30.8552 11.4795ZM65.4695 15.0089V17.6559H57.4515V5.26534H65.4695V7.91255H60.2736V10.0341H64.8527V12.7186H60.2736V14.99H65.4695V15.0089ZM52.1062 13.1315C53.4704 12.4369 54.3861 11.0478 54.3861 9.52707C54.3861 7.16152 52.4986 5.26558 50.1623 5.26558H45.228V17.6745H48.0501V13.601H49.396L51.7135 17.6745H54.7413L52.1062 13.1315ZM50.1434 11.1227H48.0315V7.93146H50.1434C50.9097 7.93146 51.5454 8.6259 51.5454 9.52707C51.5454 10.4282 50.9097 11.1227 50.1434 11.1227ZM73.0765 5.26558H68.5348V17.6369H73.0765C76.4594 17.6369 79.0574 14.9524 79.0574 11.4419C79.0574 7.95013 76.4782 5.26558 73.0765 5.26558ZM73.0765 15.0089H71.357V7.93146H73.0765C75.0017 7.93146 76.3473 9.33932 76.3473 11.4606C76.3473 13.5821 75.0203 15.0089 73.0765 15.0089Z" fill="black"/>
</g>
</g>
<defs>
<clipPath id="clip0_84_1274">
<rect width="78.7647" height="26" fill="white" transform="translate(0.617676)"/>
</clipPath>
</defs>
</svg>
