<svg width="80" height="26" viewBox="0 0 80 26" fill="none" xmlns="http://www.w3.org/2000/svg">
<g clip-path="url(#clip0_1350_1347)">
<path d="M31.59 10.0802C30.1829 9.06164 28.4896 8.51433 26.7525 8.51667C22.1894 8.51667 18.4751 12.231 18.4751 16.794C18.4751 21.3571 22.1894 25.0714 26.7525 25.0714C28.5585 25.0714 30.2242 24.4906 31.59 23.5078V24.7778H35.0298V8.7528H31.59V10.0802ZM26.7525 21.6252C24.0848 21.6252 21.915 19.4553 21.915 16.7876C21.915 14.12 24.0848 11.9501 26.7525 11.9501C29.4201 11.9501 31.59 14.12 31.59 16.7876C31.59 19.4553 29.4201 21.6252 26.7525 21.6252ZM40.3205 10.0802V8.78471H36.8806V24.7651H40.3205V16.7876C40.3205 14.12 42.4903 11.9501 45.158 11.9501C45.9302 11.9501 46.5875 12.148 47.0343 12.282L47.5384 8.85491C46.7662 8.62516 45.9685 8.50391 45.158 8.50391C43.3519 8.51667 41.6798 9.09743 40.3205 10.0802ZM60.6661 10.0802C59.259 9.06164 57.5657 8.51433 55.8286 8.51667C51.2655 8.51667 47.5512 12.231 47.5512 16.794C47.5512 21.3571 51.2655 25.0714 55.8286 25.0714C57.6346 25.0714 59.3003 24.4906 60.6661 23.5078V24.7778H64.1059V8.7528H60.6661V10.0802ZM55.8349 21.6252C53.1673 21.6252 50.9974 19.4553 50.9974 16.7876C50.9974 14.12 53.1673 11.9501 55.8349 11.9501C58.5026 11.9501 60.6724 14.12 60.6724 16.7876C60.6724 19.4553 58.4962 21.6252 55.8349 21.6252ZM79.3268 8.7528H67.0671V12.1544H73.1938L65.9631 24.7651H78.9184V21.3635H72.1344L79.3268 8.7528Z" fill="#2E2E54"/>
<path d="M0.618652 13.82V13.8391L4.61374 12.2564L2.16946 11.2864C1.51212 12.0267 0.982423 12.8819 0.618652 13.82Z" fill="#F89D3B"/>
<path d="M16.6244 0.928589H13.1846V2.76658L16.6244 1.40723V0.928589Z" fill="#54C7E8"/>
<path d="M16.6244 1.40723V4.78965L13.1846 3.4303V2.76658L16.6244 1.40723Z" fill="#2DBAE6"/>
<path d="M16.6244 4.78965V7.51473L13.1846 8.8677V3.4303L16.6244 4.78965Z" fill="#24A4D7"/>
<path d="M16.6244 7.51477L13.1846 8.86774V9.53784L16.6244 10.8908V7.51477Z" fill="#F0574B"/>
<path d="M13.1847 10.0866V9.53139L16.6246 10.8907V13.6094L12.8784 15.09C12.8784 15.09 12.3934 13.4563 10.5745 12.4926C8.75568 11.5289 6.80919 12.0012 5.75617 12.7032L4.60742 12.2501L11.9466 9.34631C11.953 9.34631 12.3168 9.4931 13.1847 10.0866Z" fill="#E33126"/>
<path d="M12.8784 15.0901C12.9359 15.2496 12.9869 15.4092 13.0316 15.5751L16.6246 16.9983V13.6158L12.8784 15.0901Z" fill="#98C93C"/>
<path d="M13.0311 15.5752C13.1269 15.939 13.1779 16.3155 13.1843 16.7048C13.2162 18.4407 12.3227 19.9787 10.9634 20.8594L12.3419 21.4083L16.6242 19.7171V16.9984L13.0311 15.5752Z" fill="#76BF43"/>
<path d="M3.49051 16.8706C3.47592 16.04 3.67554 15.2197 4.07013 14.4886C4.46472 13.7576 5.04096 13.1405 5.74333 12.6969L4.61373 12.2501L0.618635 13.8328C0.618635 13.8328 0.612254 13.8328 0.612254 13.8392C0.286776 14.688 0.0953177 15.607 0.0761719 16.5579L3.63729 17.9619C3.54794 17.6173 3.49689 17.2536 3.49051 16.8706Z" fill="#F48030"/>
<path d="M3.63719 17.9682L0.0760755 16.5642C0.0696936 16.6855 0.0696936 16.8131 0.0760755 16.9344C0.0952213 17.9874 0.312206 18.9893 0.688741 19.9083L3.86694 18.6511C3.77121 18.4341 3.69463 18.2044 3.63719 17.9682Z" fill="#F16722"/>
<path d="M8.42387 21.6251C7.45386 21.6427 6.50091 21.3687 5.68847 20.8384C4.87602 20.3082 4.24153 19.5462 3.86717 18.6511L0.688965 19.9084C1.49309 21.874 3.02475 23.4567 4.9521 24.3247L12.3488 21.4017L10.9703 20.8529C10.2116 21.346 9.32862 21.6137 8.42387 21.6251Z" fill="#5B449A"/>
<path d="M14.5246 22.2698L12.342 21.4082L4.94531 24.3311C6.02386 24.8162 7.22366 25.0778 8.4809 25.0587C10.2423 25.0268 11.8569 24.4524 13.1844 23.4887V24.7715H16.6243V23.1058L14.5246 22.2698Z" fill="#453290"/>
<path d="M11.9466 9.3528C10.3287 8.566 8.49817 8.3291 6.73334 8.67815C4.9685 9.0272 3.36596 9.94309 2.16943 11.2865L4.61372 12.2502L11.9466 9.3528Z" fill="#F0574B"/>
<path d="M16.6246 23.0995L12.3423 21.4083L16.6246 19.717V23.0995Z" fill="#5FB146"/>
</g>
<defs>
<clipPath id="clip0_1350_1347">
<rect width="80" height="26" fill="white"/>
</clipPath>
</defs>
</svg>
