<svg width="66" height="26" viewBox="0 0 66 26" fill="none" xmlns="http://www.w3.org/2000/svg">
<g clip-path="url(#clip0_1350_1372)">
<path d="M9.2591 5.80884C4.68986 5.80884 0.882324 7.74734 0.882324 13.5957C0.882324 18.2289 3.44262 21.1466 9.37708 21.1466C16.3622 21.1466 16.81 16.5453 16.81 16.5453H13.4254C13.4254 16.5453 12.6997 19.0229 9.17061 19.0229C6.29629 19.0229 4.22896 17.0812 4.22896 14.3597H17.1639V12.6518C17.1639 9.95936 15.4547 5.80884 9.2591 5.80884ZM9.14112 7.99152C11.8772 7.99152 13.7424 9.66768 13.7424 12.1799H4.30382C4.30382 9.51288 6.73848 7.99152 9.14112 7.99152Z" fill="#E53238"/>
<path d="M17.1616 0.14563V18.2095C17.1616 19.2349 17.0884 20.6746 17.0884 20.6746H20.3166C20.3166 20.6746 20.4325 19.6406 20.4325 18.6956C20.4325 18.6956 22.0274 21.1908 26.3642 21.1908C30.931 21.1908 34.0331 18.0202 34.0331 13.4777C34.0331 9.25183 31.1837 5.85304 26.3716 5.85304C21.8653 5.85304 20.4651 8.28644 20.4651 8.28644V0.14563H17.1616ZM25.5383 8.08734C28.6396 8.08734 30.6116 10.389 30.6116 13.4777C30.6116 16.7897 28.334 18.9565 25.5605 18.9565C22.2505 18.9565 20.4651 16.3721 20.4651 13.5072C20.4651 10.8376 22.0672 8.08734 25.5383 8.08734Z" fill="#0064D2"/>
<path d="M42.056 5.80884C35.1819 5.80884 34.741 9.57274 34.741 10.1742H38.1625C38.1625 10.1742 38.342 7.97677 41.82 7.97677C44.0801 7.97677 45.8314 9.01125 45.8314 11.0001V11.708H41.82C36.4946 11.708 33.6792 13.2659 33.6792 16.4273C33.6792 19.5386 36.2805 21.2314 39.7959 21.2314C44.5868 21.2314 46.1301 18.5841 46.1301 18.5841C46.1301 19.6371 46.2112 20.6747 46.2112 20.6747H49.2529C49.2529 20.6747 49.1349 19.3885 49.1349 18.5657V11.4536C49.1349 6.79024 45.3735 5.80884 42.056 5.80884ZM45.8314 13.8317V14.7755C45.8314 16.0066 45.0718 19.0671 40.5996 19.0671C38.1507 19.0671 37.1007 17.8449 37.1007 16.4273C37.1007 13.8483 40.6366 13.8317 45.8314 13.8317Z" fill="#F5AF02"/>
<path d="M47.2925 6.39929H51.1417L56.6658 17.4665L62.1773 6.39929H65.6641L55.625 26.1024H51.9675L54.8644 20.6099L47.2925 6.39929Z" fill="#86B817"/>
</g>
<defs>
<clipPath id="clip0_1350_1372">
<rect width="65.7647" height="26" fill="white" transform="translate(0.117676)"/>
</clipPath>
</defs>
</svg>
