<svg width="100" height="26" viewBox="0 0 100 26" fill="none" xmlns="http://www.w3.org/2000/svg">
<g clip-path="url(#clip0_1350_2413)">
<path d="M99.304 4.50553C99.293 4.46877 99.2819 4.43202 99.2672 4.39526C90.5579 4.39894 81.8523 4.39526 73.1467 4.39894C73.1247 4.42467 73.11 4.4504 73.1063 4.48347C73.1063 11.2353 73.1063 17.9833 73.1025 24.7352C73.1577 25.0953 73.3562 25.4224 73.621 25.6687C73.632 25.6724 73.6577 25.676 73.6688 25.6797C73.8048 25.823 73.9996 25.8929 74.1835 25.959C74.3195 25.9517 74.4518 26.0105 74.5879 25.9958H85.3963C85.4993 25.9921 85.6058 26.0105 85.7051 25.9701C85.7088 25.9555 85.7124 25.9297 85.7161 25.915C85.7199 25.8966 85.7235 25.8562 85.7272 25.8341C85.9588 24.5404 86.183 23.243 86.4294 21.9492L86.4515 21.7838C85.4515 21.7801 84.4478 21.7838 83.4479 21.7801C83.2052 21.7728 82.9553 21.7801 82.7126 21.7507C82.2972 21.7323 81.8781 21.747 81.4627 21.7066C80.948 21.7066 80.437 21.6588 79.9223 21.6588C79.5179 21.6183 79.1098 21.6331 78.7018 21.6147C78.4371 21.5817 78.165 21.5963 77.8967 21.5853C77.4592 21.5375 77.0144 21.5706 76.5769 21.5228C76.1137 21.5266 75.6505 21.4861 75.1873 21.475C75.1909 21.4713 75.1946 21.4566 75.1946 21.4529C75.349 21.4566 75.4997 21.4456 75.6541 21.442C75.9961 21.3978 76.3416 21.4273 76.6835 21.3794C77.0401 21.3794 77.3931 21.3317 77.7497 21.3317C78.0658 21.2876 78.3857 21.3133 78.7018 21.2692C79.0732 21.2692 79.437 21.2214 79.8084 21.2177C80.1136 21.1773 80.4224 21.1993 80.7275 21.1589C81.0841 21.1626 81.4371 21.1075 81.7937 21.1112C82.1429 21.0707 82.4994 21.0817 82.8487 21.0449C82.8157 20.909 82.7899 20.773 82.7605 20.6369C82.7348 20.5524 82.6319 20.5708 82.5657 20.5597C81.7679 20.4457 80.9738 20.3319 80.1797 20.2216C80.2312 20.1811 80.3011 20.1995 80.3599 20.1922C80.9775 20.1444 81.5915 20.0892 82.2091 20.0452C82.3488 20.0379 82.4848 20.0121 82.6245 20.0084C82.562 19.8173 82.5253 19.6078 82.4407 19.4314C81.121 19.2293 79.8011 19.0492 78.4849 18.8323C78.8268 18.7772 79.1724 18.7515 79.5143 18.7147L79.5437 18.7036C80.6356 18.5896 81.7312 18.461 82.823 18.3545C84.209 18.3472 85.5913 18.3507 86.9773 18.3545C87.0214 18.3472 87.0986 18.3691 87.106 18.3067C87.22 17.7113 87.3303 17.1159 87.4441 16.5204C87.6022 15.6935 87.8522 14.8775 88.2382 14.124C88.8448 12.9111 89.8044 11.882 90.9734 11.1984C92.0652 10.5589 93.33 10.2502 94.5873 10.1914C94.9954 10.1546 95.4071 10.1656 95.8115 10.2171C96.0762 10.2796 96.3483 10.3531 96.5578 10.5332C96.7306 10.6728 96.8336 10.8787 96.9108 11.0845C97.0799 11.5733 97.1755 12.0805 97.2563 12.5914C97.26 12.7972 97.2968 13.0288 97.1865 13.2162C97.0835 13.4 96.8777 13.4882 96.6829 13.5434C95.9733 13.7271 95.2307 13.5544 94.5211 13.7271C93.9367 13.8521 93.3925 14.1755 93.0212 14.6423C92.5837 15.1862 92.3521 15.8625 92.2234 16.5388C92.1242 17.1416 91.9991 17.7444 91.8999 18.3508C92.5984 18.3546 93.3006 18.3471 94.0028 18.3546C94.2822 18.3546 94.5689 18.5089 94.6829 18.7735C94.8299 19.1117 94.7969 19.4939 94.7491 19.8504C94.6902 20.251 94.5947 20.648 94.4145 21.0155C94.2637 21.3279 94.0138 21.6146 93.6719 21.7249C93.4954 21.7947 93.3043 21.78 93.1168 21.78C92.4991 21.78 91.8814 21.7873 91.2639 21.78C91.1646 22.2321 91.0984 22.6952 91.0102 23.1546C90.8485 24.0477 90.6904 24.9445 90.5286 25.8414C90.5249 25.8708 90.5213 25.9333 90.5213 25.9664C90.8117 25.9811 91.1021 25.9664 91.3925 25.9737C93.5469 25.9737 95.7049 25.9699 97.8629 25.9737C98.0945 25.9811 98.3298 25.9259 98.532 25.8119C98.6533 25.7679 98.7269 25.6613 98.8335 25.6025C98.9364 25.5437 98.9658 25.4225 99.0541 25.3452C99.1497 25.1761 99.2489 24.9998 99.2563 24.8012C99.2673 24.8012 99.2967 24.7975 99.3114 24.7939C99.3002 18.0312 99.3113 11.2683 99.304 4.50553Z" fill="url(#paint0_linear_1350_2413)" stroke="#FCD109" stroke-width="0.0349143"/>
<path d="M76.5327 0.0583567C76.8452 -0.0408803 77.1724 0.0252777 77.4923 0.00322505C83.4958 0.0069005 89.4993 0.00322505 95.5027 0.00322505C95.8593 -0.0114767 96.1718 0.190673 96.5027 0.293585C96.7674 0.400173 97.0431 0.484708 97.3078 0.598647C97.3629 0.620699 97.4034 0.66848 97.4438 0.70891C97.4401 1.19407 97.4438 1.6829 97.4438 2.17174C97.4475 2.30038 97.4254 2.43269 97.4695 2.55766C97.5468 2.56868 97.5871 2.62749 97.6387 2.67527C97.8813 2.78554 98.0871 2.96563 98.3077 3.11265C98.6386 3.34788 98.9916 3.5537 99.315 3.79628C99.3297 3.89184 99.3187 3.99108 99.2893 4.07929C99.2563 4.1822 99.2783 4.29247 99.2672 4.39538C90.5579 4.39905 81.8523 4.39538 73.1467 4.39905C73.1284 4.27776 73.1614 4.15648 73.11 4.04254C73.1026 3.94697 73.0695 3.82201 73.1614 3.75585C73.5291 3.49857 73.9188 3.26702 74.279 2.99504C74.5033 2.85169 74.7201 2.70468 74.937 2.55766C74.9812 2.48415 74.9665 2.39226 74.9665 2.3114C74.9665 1.77846 74.9665 1.24552 74.9701 0.712586C75.0951 0.550866 75.3121 0.532489 75.4848 0.451629C75.8342 0.319313 76.1872 0.190673 76.5327 0.0583567ZM76.5548 0.120839C76.0842 0.300936 75.61 0.473682 75.1394 0.653778C75.0769 0.664805 75.0437 0.719936 75.0107 0.767717C75.0144 0.797121 75.0181 0.848577 75.0181 0.87798C75.0143 1.31903 75.0181 1.76009 75.0143 2.20114C75.0181 2.3114 75.0033 2.42167 75.0437 2.5209C74.9959 2.56868 74.9445 2.61646 74.8856 2.65322C74.3526 2.99871 73.8379 3.37361 73.3048 3.71542C73.2129 3.77055 73.11 3.84406 73.1394 3.96535C73.121 4.03151 73.1541 4.08664 73.2239 4.06826C74.3783 4.06091 75.529 4.07561 76.6835 4.05724C78.4003 4.05724 80.1135 4.06091 81.8304 4.05724L81.8561 4.04621C81.9333 4.06459 82.0104 4.05724 82.0913 4.05724C85.2015 4.05724 88.3117 4.06091 91.4255 4.05724C92.4035 4.06091 93.3851 4.05724 94.3666 4.05724C95.9842 4.05724 97.6055 4.07194 99.2231 4.06459C99.2709 4.05356 99.2856 4.02048 99.2672 3.96168C99.2635 3.90287 99.2856 3.82201 99.2231 3.78526C98.9658 3.66397 98.7452 3.47652 98.4989 3.3295C98.4107 3.25599 98.2967 3.21556 98.2305 3.11632C97.9768 2.97298 97.7415 2.79656 97.4915 2.63852C97.4437 2.60911 97.4069 2.56133 97.3666 2.5209C97.3886 2.44372 97.396 2.35918 97.396 2.27832C97.3923 1.81154 97.396 1.34476 97.3923 0.87798C97.4033 0.804472 97.3996 0.719936 97.3334 0.672156C96.8922 0.514112 96.4548 0.345041 96.0173 0.183322C95.8812 0.117164 95.7305 0.0804093 95.5834 0.0583567H76.7936C76.7129 0.0620321 76.6357 0.102462 76.5548 0.120839Z" fill="#F8F3B5" stroke="#F8F3B5" stroke-width="0.0349143"/>
<path d="M75.0179 0.87793C75.3414 1.01392 75.6869 1.09111 76.0142 1.22342C76.1907 1.29325 76.2458 1.48438 76.323 1.63875C76.2457 1.71593 76.1538 1.77841 76.0619 1.83722C75.7237 2.0651 75.3781 2.28562 75.0436 2.52085C75.0031 2.42162 75.0179 2.31135 75.0142 2.20109C75.0179 1.76004 75.0142 1.31898 75.0179 0.87793ZM96.3958 1.22342C96.723 1.09478 97.0649 1.00657 97.3922 0.87793C97.3959 1.34471 97.3922 1.81149 97.3959 2.27827C97.3959 2.35913 97.3885 2.44367 97.3665 2.52085C97.0797 2.32238 96.7893 2.13493 96.5025 1.94013C96.3628 1.83722 96.2084 1.76004 96.0834 1.63507C96.1606 1.4807 96.2194 1.29325 96.3958 1.22342Z" fill="#F7B402" stroke="#F7B402" stroke-width="0.0349143"/>
<path d="M80.6283 1.37418C81.0327 1.27862 81.4848 1.63881 81.4518 2.06149C81.4554 2.47681 81.0179 2.81495 80.6172 2.71939C80.4555 2.66426 80.301 2.57973 80.2018 2.43638C80.0731 2.24159 80.0436 1.98063 80.1467 1.76745C80.2202 1.56163 80.4187 1.42196 80.6283 1.37418ZM91.1169 1.60573C91.286 1.41829 91.5544 1.3117 91.8044 1.37786C91.9919 1.43299 92.1757 1.55428 92.2566 1.73805C92.4183 2.05414 92.2933 2.48049 91.9772 2.64588C91.6977 2.80025 91.3448 2.72674 91.1316 2.50254C90.9147 2.25629 90.8999 1.85199 91.1169 1.60573Z" fill="#BDA727" stroke="#BDA727" stroke-width="0.0349143"/>
<path d="M76.0621 1.83728C76.154 1.77847 76.2459 1.71599 76.3232 1.63881L76.3489 1.66454C76.3746 1.85566 76.3562 2.05046 76.3636 2.24158C76.3525 2.81495 76.3746 3.39199 76.3489 3.96536C75.279 3.96536 74.2093 3.95801 73.1394 3.96536C73.11 3.84407 73.2129 3.77056 73.3048 3.71543C73.8379 3.37362 74.3526 2.99872 74.8857 2.65323C74.9446 2.61647 74.996 2.56869 75.0437 2.52091C75.3783 2.28569 75.7239 2.06516 76.0621 1.83728ZM96.0467 1.76377C96.0467 1.71599 96.0578 1.67556 96.0834 1.63513C96.2084 1.7601 96.3629 1.83728 96.5026 1.94019C96.7893 2.13499 97.0797 2.32244 97.3665 2.52091C97.4069 2.56134 97.4437 2.60912 97.4915 2.63853C97.7415 2.79657 97.9767 2.97299 98.2304 3.11634C98.2966 3.21557 98.4105 3.256 98.4988 3.32951C98.7451 3.47653 98.9657 3.66398 99.2231 3.78527C99.2856 3.82202 99.2635 3.90288 99.2672 3.96169C98.1973 3.96536 97.1311 3.95801 96.0614 3.96536C96.043 3.81834 96.054 3.67133 96.0504 3.52798C96.0504 2.93991 96.0431 2.35184 96.0467 1.76377Z" fill="#F7E62D" stroke="#F7E62D" stroke-width="0.0349143"/>
<path d="M99.2673 3.96167C98.1974 3.96534 97.1312 3.95799 96.0615 3.96534C96.0431 3.81833 96.0541 3.67131 96.0505 3.52797C96.0505 2.9399 96.0431 2.35183 96.0467 1.76375C96.0467 1.71597 96.0578 1.67554 96.0835 1.63511C96.1608 1.48075 96.2195 1.2933 96.396 1.22346C96.7232 1.09482 97.0651 1.00661 97.3923 0.877973C97.4034 0.804464 97.3997 0.719929 97.3334 0.672149C96.8923 0.514105 96.4549 0.345034 96.0173 0.183315C95.8813 0.117157 95.7306 0.0804023 95.5835 0.0583496H76.7937C76.7128 0.0620251 76.6356 0.102455 76.5547 0.120832C76.0841 0.300929 75.6099 0.473675 75.1393 0.653771C75.0768 0.664798 75.0436 0.719929 75.0106 0.76771C75.0143 0.797114 75.018 0.84857 75.018 0.877973C75.3415 1.01396 75.687 1.09115 76.0143 1.22346C76.1907 1.2933 76.2459 1.48442 76.3231 1.63879L76.3487 1.66452C76.3745 1.85564 76.3561 2.05044 76.3635 2.24156C76.3524 2.81493 76.3745 3.39198 76.3487 3.96534C75.2789 3.96534 74.2092 3.95799 73.1393 3.96534C73.1209 4.0315 73.154 4.08663 73.2238 4.06826C74.3782 4.06091 75.5289 4.07561 76.6834 4.05723C78.4002 4.05723 80.1134 4.06091 81.8303 4.05723L81.856 4.0462C81.9332 4.06458 82.0103 4.05723 82.0912 4.05723C85.2014 4.05723 88.3116 4.06091 91.4254 4.05723C92.4034 4.06091 93.385 4.05723 94.3665 4.05723C95.9841 4.05723 97.6054 4.07193 99.223 4.06458C99.271 4.05356 99.2857 4.02048 99.2673 3.96167ZM80.1466 1.76743C80.2201 1.56161 80.4185 1.42194 80.6282 1.37416C81.0326 1.2786 81.4848 1.63879 81.4517 2.06147C81.4553 2.47679 81.0178 2.81493 80.6171 2.71937C80.4554 2.66424 80.3009 2.5797 80.2017 2.43636C80.073 2.24156 80.0436 1.98061 80.1466 1.76743ZM91.1168 1.60571C91.2859 1.41826 91.5543 1.31168 91.8043 1.37783C91.9918 1.43296 92.1756 1.55425 92.2565 1.73803C92.4182 2.05411 92.2932 2.48047 91.9771 2.64586C91.6976 2.80023 91.3447 2.72672 91.1315 2.50252C90.9146 2.25626 90.8998 1.85197 91.1168 1.60571Z" fill="url(#paint1_radial_1350_2413)" stroke="#FCD109" stroke-width="0.0349143"/>
<path d="M92.0539 5.57689C92.1053 5.58791 91.786 5.27014 91.8485 5.25543C91.9073 5.26278 92.1303 5.08971 92.3999 5.23092C92.6695 5.37213 92.6026 5.70259 92.5721 5.82513C92.5357 5.97097 92.4428 6.06403 92.3693 6.13754C92.3288 6.17062 92.2382 6.22207 92.183 6.2184C92.2161 6.0383 92.1095 6.0089 92.1021 5.82513L92.0539 5.57689Z" fill="url(#paint2_linear_1350_2413)" stroke="#FCD109" stroke-width="0.0349143"/>
<path d="M80.3014 5.7762C80.2941 5.95997 80.1874 5.98938 80.2206 6.16947C80.1654 6.17315 80.0747 6.12169 80.0343 6.08861C79.9608 6.0151 79.868 5.92204 79.8315 5.7762C79.8009 5.6537 79.7341 5.32324 80.0037 5.18199C80.2732 5.04074 80.4963 5.21382 80.5551 5.20651C80.6176 5.22121 80.2983 5.53899 80.3497 5.52796L80.3014 5.7762Z" fill="url(#paint3_linear_1350_2413)" stroke="#FCD109" stroke-width="0.0349143"/>
<path d="M91.5727 7.9313C91.628 7.8833 91.6648 7.8833 91.7383 7.8833C91.2971 8.83892 90.7824 9.79453 90.0086 10.5386C89.9258 10.6124 89.8384 10.6809 89.7469 10.7436C89.6583 10.8084 89.5714 10.8692 89.4851 10.9311C89.4005 10.9898 89.3165 11.0488 89.2347 11.1104C89.0251 11.2243 88.8413 11.3824 88.6097 11.4522C88.1869 11.6543 87.7311 11.7903 87.2716 11.8859C87.0914 11.9153 86.9076 11.9594 86.7238 11.9631C86.4958 12.0293 86.2532 11.9815 86.0216 11.9962C85.8929 12.0182 85.7789 11.9447 85.654 11.9594C85.5455 11.9441 85.4373 11.9257 85.3298 11.9042C85.2207 11.8819 85.1123 11.8562 85.0048 11.8271C83.3194 11.3015 81.6651 10.0151 81.1831 8.27529C81.1614 8.15812 81.1504 8.03922 81.1504 7.92006C81.2018 8.02297 81.2552 8.12515 81.3103 8.22637C81.996 9.72102 83.3562 10.8972 84.9632 11.2518C85.0936 11.3113 85.2348 11.2904 85.3599 11.3419C85.4738 11.3419 85.5841 11.3382 85.6944 11.375C86.0731 11.3823 86.4517 11.3786 86.8304 11.3786C86.8818 11.3823 86.9296 11.3566 86.9811 11.3456C87.6122 11.3242 88.2306 11.1521 88.8063 10.8911C88.9215 10.8389 89.035 10.7832 89.1465 10.7244C89.2441 10.673 89.3394 10.6174 89.4321 10.5576C89.5231 10.4989 89.6116 10.4364 89.6974 10.3703C90.378 9.83129 90.9663 9.13295 91.3657 8.3299C91.4417 8.18539 91.5113 8.05156 91.5727 7.9313Z" fill="#BDA727" stroke="#BDA727" stroke-width="0.0349143"/>
<path d="M90.9733 11.1986C92.0652 10.5591 93.3299 10.2504 94.5872 10.1916C94.9953 10.1548 95.407 10.1658 95.8114 10.2173C96.0761 10.2798 96.3482 10.3533 96.5577 10.5334C96.4511 10.5407 96.3482 10.493 96.2416 10.4782C95.9401 10.4194 95.6276 10.4415 95.3225 10.4341C94.4364 10.4341 93.5431 10.504 92.6865 10.7466C92.238 10.8825 91.7895 11.0406 91.3814 11.2758C90.6756 11.6654 90.0396 12.18 89.5249 12.7975C88.6058 13.8523 88.0654 15.1902 87.8043 16.5538C87.6793 17.2851 87.5359 18.0128 87.422 18.7479C87.2382 18.7663 87.0507 18.7553 86.8669 18.7553C86.0581 18.7516 85.2493 18.7479 84.4405 18.7407C84.2677 18.7479 84.0985 18.7076 83.9258 18.7186C82.4552 18.7259 80.9847 18.7149 79.5142 18.7149L79.5436 18.7038C80.6354 18.5898 81.731 18.4612 82.8229 18.3546C84.2088 18.3473 85.5912 18.3509 86.9772 18.3546C87.0212 18.3473 87.0985 18.3693 87.1058 18.3068C87.2198 17.7114 87.3301 17.1161 87.444 16.5206C87.6021 15.6937 87.8521 14.8777 88.2381 14.1243C88.8447 12.9114 89.8043 11.8822 90.9733 11.1986Z" fill="#0D69B3" stroke="#0D69B3" stroke-width="0.0349143"/>
<path d="M92.6867 10.7466C93.5433 10.504 94.4367 10.4342 95.3227 10.4342C95.6278 10.4416 95.9403 10.4195 96.2418 10.4783C96.3483 10.493 96.4512 10.5408 96.5579 10.5334C96.7307 10.6731 96.8337 10.8789 96.9109 11.0848C97.08 11.5736 97.1755 12.0808 97.2564 12.5917C97.2601 12.7975 97.2969 13.0291 97.1866 13.2165C97.0836 13.4003 96.8778 13.4885 96.683 13.5436C95.9734 13.7274 95.2308 13.5546 94.5212 13.7274C93.9368 13.8524 93.3926 14.1758 93.0213 14.6426C92.5838 15.1865 92.3522 15.8627 92.2235 16.5391C92.1243 17.1419 91.9992 17.7446 91.9 18.3511C91.8559 18.4871 91.8302 18.6341 91.8044 18.7775C92.4992 18.7886 93.1941 18.7775 93.8889 18.7848C94.1535 18.7775 94.4182 18.7921 94.683 18.7737C94.83 19.1119 94.7969 19.4942 94.7492 19.8507C94.6903 20.2513 94.5948 20.6482 94.4146 21.0158C94.2638 21.3282 94.0139 21.6149 93.672 21.7252C93.4955 21.795 93.3043 21.7803 93.1169 21.7803C92.4992 21.7803 91.8815 21.7876 91.264 21.7803C91.1647 22.2324 91.0985 22.6955 91.0103 23.1549C90.8486 24.048 90.6905 24.9448 90.5287 25.8417C90.525 25.8711 90.5214 25.9335 90.5214 25.9666V25.9703C88.9148 25.9703 87.3119 25.974 85.7053 25.9703C85.709 25.9557 85.7127 25.9299 85.7164 25.9152C85.7201 25.8968 85.7237 25.8564 85.7274 25.8343C85.7311 25.8638 85.7347 25.9189 85.7385 25.9446C85.8377 25.9557 86.0179 26.007 86.0436 25.8638C86.2936 24.5112 86.5252 23.1513 86.7826 21.7987C86.6833 21.7766 86.5804 21.7766 86.4774 21.795C86.4628 21.8464 86.448 21.8979 86.4296 21.9493L86.4517 21.7839C85.4518 21.7802 84.4481 21.7839 83.4482 21.7802C83.2055 21.7729 82.9556 21.7802 82.7129 21.7508C82.2975 21.7324 81.8784 21.7471 81.463 21.7067C80.9483 21.7067 80.4373 21.6589 79.9226 21.6589C79.5182 21.6185 79.1101 21.6332 78.702 21.6148C78.4374 21.5818 78.1653 21.5964 77.897 21.5854C77.4595 21.5376 77.0146 21.5708 76.5772 21.5229C76.1139 21.5266 75.6507 21.4861 75.1875 21.4752C75.1912 21.4715 75.1949 21.4568 75.1949 21.4531C75.3493 21.4568 75.5 21.4457 75.6544 21.442C75.9963 21.398 76.3419 21.4273 76.6838 21.3796C77.0404 21.3796 77.3933 21.3318 77.7499 21.3318C78.0661 21.2877 78.3859 21.3134 78.702 21.2693C79.0734 21.2693 79.4373 21.2215 79.8087 21.2179C80.1138 21.1774 80.4226 21.1995 80.7278 21.1591C81.0844 21.1627 81.4373 21.1076 81.7939 21.1112C82.1432 21.0707 82.4997 21.0818 82.8489 21.0451C82.8159 20.9091 82.7901 20.7731 82.7608 20.6371C82.7351 20.5525 82.6321 20.5709 82.5659 20.5599C81.7682 20.4459 80.9741 20.332 80.18 20.2217C80.2315 20.1812 80.3013 20.1996 80.3601 20.1924C80.9778 20.1445 81.5917 20.0893 82.2093 20.0453C82.349 20.0379 82.4851 20.0123 82.6248 20.0086C82.5623 19.8174 82.5255 19.608 82.4409 19.4315C81.1212 19.2294 79.8013 19.0493 78.4852 18.8324C78.8271 18.7773 79.1727 18.7515 79.5146 18.7148C80.9851 18.7148 82.4557 18.7259 83.9262 18.7185C84.0989 18.7075 84.2681 18.7479 84.4409 18.7406C85.2497 18.7479 86.0585 18.7517 86.8673 18.7552C87.0511 18.7552 87.2386 18.7663 87.4224 18.7479C87.5364 18.0128 87.6798 17.285 87.8047 16.5537C88.0658 15.19 88.6062 13.8523 89.5253 12.7974C90.04 12.1799 90.676 11.6654 91.3818 11.2758C91.7897 11.0407 92.2382 10.8826 92.6867 10.7466Z" fill="#107BD4" stroke="#107BD4" stroke-width="0.0349143"/>
<path d="M91.9001 18.351C92.5986 18.3547 93.3009 18.3473 94.003 18.3547C94.2824 18.3547 94.5692 18.509 94.6831 18.7736C94.4184 18.792 94.1537 18.7774 93.889 18.7847C93.1942 18.7774 92.4993 18.7884 91.8046 18.7774C91.8303 18.634 91.8559 18.487 91.9001 18.351ZM86.4775 21.7949C86.5805 21.7765 86.6835 21.7765 86.7827 21.7986C86.5253 23.1512 86.2937 24.5111 86.0437 25.8637C86.018 26.0069 85.8378 25.9555 85.7386 25.9445C85.7348 25.9188 85.7312 25.8637 85.7275 25.8342C85.9591 24.5405 86.1833 23.243 86.4297 21.9493C86.4481 21.8978 86.4628 21.8464 86.4775 21.7949Z" fill="#0D69B3" stroke="#0D69B3" stroke-width="0.0349143"/>
<path d="M92.2217 5.67979C92.1923 5.62466 92.1887 5.5585 92.1887 5.49602L92.1592 5.4997C92.1151 5.33798 91.9792 5.18361 91.8027 5.17626C91.6703 5.16523 91.5048 5.16891 91.4277 5.29387C91.2806 5.49234 91.3504 5.74595 91.3431 5.97015C91.3431 5.98485 91.3468 6.01058 91.3468 6.02528C91.3468 6.17598 91.3284 6.32299 91.3027 6.47001C91.2807 6.51412 91.2697 6.5619 91.2697 6.61335C91.2072 6.95885 91.0821 7.30066 90.9131 7.61307C90.88 7.65718 90.8542 7.70496 90.8432 7.75642C90.7329 7.94754 90.6006 8.12396 90.4646 8.30038C90.4425 8.31876 90.4241 8.34081 90.4057 8.36286C90.3101 8.48048 90.2072 8.57972 90.1005 8.68263C90.0748 8.69733 90.0565 8.71571 90.0344 8.73041C89.9094 8.8517 89.7697 8.96564 89.6189 9.05752C89.6006 9.06855 89.5822 9.08325 89.5601 9.09795C88.6189 9.7191 87.4756 9.97638 86.3617 9.98741C85.4169 10.0168 84.4646 9.81466 83.6117 9.40669C83.5971 9.39934 83.5603 9.38464 83.5455 9.37729C83.4022 9.3001 83.2551 9.23394 83.1227 9.13838C83.0933 9.12368 83.0639 9.1053 83.0308 9.0906C82.8948 9.00974 82.7661 8.92153 82.6448 8.81862C82.6044 8.78187 82.5603 8.75246 82.5161 8.71938C82.3838 8.61279 82.2478 8.49886 82.1339 8.37022C82.1045 8.33714 82.075 8.30773 82.0456 8.27833C81.645 7.863 81.3325 7.35579 81.1671 6.80448C81.0089 6.3671 81.031 5.88929 81.0127 5.42986C80.8802 5.22771 80.6009 5.11377 80.3803 5.23874C80.2884 5.3049 80.2774 5.42619 80.2075 5.51072C80.0936 6.72362 80.6119 7.93284 81.4391 8.80759C81.4391 8.837 81.4538 8.85537 81.4796 8.8664C81.6267 9.00239 81.77 9.14206 81.917 9.27437C81.9428 9.3001 81.9722 9.32583 82.0053 9.34788C82.1523 9.46917 82.3104 9.57944 82.4648 9.69337C82.4942 9.71543 82.5236 9.7338 82.5567 9.75218C82.7589 9.8698 82.95 10.0095 83.167 10.0903C83.1817 10.1013 83.2074 10.1197 83.2222 10.1271C83.9207 10.4615 84.6743 10.6894 85.4463 10.7629C85.5309 10.7629 85.6155 10.7703 85.7 10.7887C86.0677 10.8107 86.4353 10.7997 86.8029 10.7923C87.9388 10.6931 89.1117 10.4174 90.0602 9.74851L90.0712 9.76321C90.1006 9.73748 90.1263 9.71543 90.1558 9.69337C90.3066 9.58311 90.4536 9.4655 90.6007 9.34421C90.6337 9.31848 90.6704 9.28908 90.7036 9.256C90.8653 9.07958 91.0529 8.91786 91.1889 8.71571L91.2109 8.72673C91.222 8.70836 91.2404 8.6716 91.2515 8.65322C91.3764 8.48415 91.4904 8.30773 91.6007 8.13131C91.608 8.12029 91.6264 8.10191 91.6337 8.09088L91.6191 8.07618C91.6301 8.06148 91.6559 8.03207 91.6669 8.01737C91.8691 7.60572 92.0492 7.1757 92.1117 6.71994C92.1375 6.70892 92.1522 6.68686 92.1522 6.66113C92.1559 6.51412 92.2073 6.37445 92.1927 6.22743C92.2254 6.04734 92.2291 5.86356 92.2217 5.67979Z" fill="white" stroke="white" stroke-width="0.0349143"/>
<mask id="mask0_1350_2413" style="mask-type:luminance" maskUnits="userSpaceOnUse" x="80" y="5" width="13" height="6">
<path d="M92.2217 5.67979C92.1923 5.62466 92.1887 5.5585 92.1887 5.49602L92.1592 5.4997C92.1151 5.33798 91.9792 5.18361 91.8027 5.17626C91.6703 5.16523 91.5048 5.16891 91.4277 5.29387C91.2806 5.49234 91.3504 5.74595 91.3431 5.97015C91.3431 5.98485 91.3468 6.01058 91.3468 6.02528C91.3468 6.17598 91.3284 6.32299 91.3027 6.47001C91.2807 6.51412 91.2697 6.5619 91.2697 6.61335C91.2072 6.95885 91.0821 7.30066 90.9131 7.61307C90.88 7.65718 90.8542 7.70496 90.8432 7.75642C90.7329 7.94754 90.6006 8.12396 90.4646 8.30038C90.4425 8.31876 90.4241 8.34081 90.4057 8.36286C90.3101 8.48048 90.2072 8.57972 90.1005 8.68263C90.0748 8.69733 90.0565 8.71571 90.0344 8.73041C89.9094 8.8517 89.7697 8.96564 89.6189 9.05752C89.6006 9.06855 89.5822 9.08325 89.5601 9.09795C88.6189 9.7191 87.4756 9.97638 86.3617 9.98741C85.4169 10.0168 84.4646 9.81466 83.6117 9.40669C83.5971 9.39934 83.5603 9.38464 83.5455 9.37729C83.4022 9.3001 83.2551 9.23394 83.1227 9.13838C83.0933 9.12368 83.0639 9.1053 83.0308 9.0906C82.8948 9.00974 82.7661 8.92153 82.6448 8.81862C82.6044 8.78187 82.5603 8.75246 82.5161 8.71938C82.3838 8.61279 82.2478 8.49886 82.1339 8.37022C82.1045 8.33714 82.075 8.30773 82.0456 8.27833C81.645 7.863 81.3325 7.35579 81.1671 6.80448C81.0089 6.3671 81.031 5.88929 81.0127 5.42986C80.8802 5.22771 80.6009 5.11377 80.3803 5.23874C80.2884 5.3049 80.2774 5.42619 80.2075 5.51072C80.0936 6.72362 80.6119 7.93284 81.4391 8.80759C81.4391 8.837 81.4538 8.85537 81.4796 8.8664C81.6267 9.00239 81.77 9.14206 81.917 9.27437C81.9428 9.3001 81.9722 9.32583 82.0053 9.34788C82.1523 9.46917 82.3104 9.57944 82.4648 9.69337C82.4942 9.71543 82.5236 9.7338 82.5567 9.75218C82.7589 9.8698 82.95 10.0095 83.167 10.0903C83.1817 10.1013 83.2074 10.1197 83.2222 10.1271C83.9207 10.4615 84.6743 10.6894 85.4463 10.7629C85.5309 10.7629 85.6155 10.7703 85.7 10.7887C86.0677 10.8107 86.4353 10.7997 86.8029 10.7923C87.9388 10.6931 89.1117 10.4174 90.0602 9.74851L90.0712 9.76321C90.1006 9.73748 90.1263 9.71543 90.1558 9.69337C90.3066 9.58311 90.4536 9.4655 90.6007 9.34421C90.6337 9.31848 90.6704 9.28908 90.7036 9.256C90.8653 9.07958 91.0529 8.91786 91.1889 8.71571L91.2109 8.72673C91.222 8.70836 91.2404 8.6716 91.2515 8.65322C91.3764 8.48415 91.4904 8.30773 91.6007 8.13131C91.608 8.12029 91.6264 8.10191 91.6337 8.09088L91.6191 8.07618C91.6301 8.06148 91.6559 8.03207 91.6669 8.01737C91.8691 7.60572 92.0492 7.1757 92.1117 6.71994C92.1375 6.70892 92.1522 6.68686 92.1522 6.66113C92.1559 6.51412 92.2073 6.37445 92.1927 6.22743C92.2254 6.04734 92.2291 5.86356 92.2217 5.67979Z" fill="white"/>
</mask>
<g mask="url(#mask0_1350_2413)">
<path d="M79.9253 5.5557C80.2233 5.64916 80.9079 5.41401 81.1017 5.62921M80.0969 6.46228C80.3824 6.36294 80.9948 6.12771 81.2488 6.26627M80.391 7.3689C80.529 7.4136 80.8011 7.17113 80.9363 7.10008C81.1374 6.99434 81.3437 6.9133 81.5674 6.87886M80.8321 8.32452C80.9745 8.12222 81.145 7.95422 81.3507 7.81051C81.5545 7.66812 82.1123 7.28768 82.3517 7.4179M81.2488 9.01061C81.4104 8.88216 81.4762 8.65494 81.6459 8.51998C81.8512 8.35672 82.1657 8.32742 82.3762 8.22649M81.9411 9.519C81.9895 9.16366 82.3504 8.73484 82.6948 8.76553M82.4742 10.0152C82.6562 9.99699 82.8102 9.58975 82.9332 9.45174C83.1176 9.245 83.3086 9.18141 83.5526 9.1086M83.5281 10.4563C83.5163 10.1991 83.7821 9.46188 84.0918 9.50066M84.3124 10.7013C84.2995 10.3974 84.4567 9.48339 84.8271 9.45167M85.1212 11.1914C85.0509 10.7664 85.0555 10.1517 85.3907 9.84369M86.1261 11.2894C86.0887 10.9351 85.7366 10.2191 86.1261 9.94171M87.2044 11.0443C87.0364 10.8495 86.9386 10.081 87.0083 9.8682M88.2338 10.8728C88.1042 10.6375 87.9435 10.4165 87.8944 10.1433C87.8651 9.98001 87.9165 9.74743 87.8907 9.62316M89.0917 10.5053C88.8105 10.3214 88.7324 9.64555 88.822 9.35364M89.9249 10.1377C89.7249 9.70876 89.5117 9.37617 89.5083 8.88807M90.7337 9.35364C90.4229 9.14462 90.0263 8.76465 90.072 8.34903M91.5916 8.69206C91.1193 8.58746 90.5526 8.16504 90.2681 7.78544M91.9837 7.88347C91.643 7.81043 90.5175 7.3714 90.5867 6.92785M92.3513 7.02587C91.8767 6.85192 91.1862 6.69553 90.8073 6.36429M92.5964 6.24176C92.2974 6.26734 91.8691 6.12263 91.5653 6.07022C91.2279 6.01204 90.915 5.89836 90.5867 5.82518M92.3023 5.48219C91.7257 5.5167 91.1846 5.31944 90.6602 5.13916" stroke="#D1D1D1" stroke-width="0.742857"/>
</g>
<path d="M18.5193 7.2493C19.0521 7.16892 19.6652 7.11868 20.1175 7.45028C20.3989 7.66125 20.4994 8.04309 20.4793 8.38483C20.4994 8.94754 20.2381 9.5505 19.7356 9.84196C19.2933 10.0831 18.7606 10.1031 18.268 10.0529C17.9363 10.0128 17.6046 9.83196 17.4338 9.53047C17.0517 8.65619 17.5242 7.42014 18.5193 7.2493ZM2.57751 7.8824C2.60762 7.5809 2.87905 7.30958 3.19062 7.31969C5.5126 7.31969 7.82445 7.32968 10.1363 7.31969C10.3876 7.29958 10.659 7.41007 10.7796 7.63114C10.9504 7.93264 10.7997 8.26424 10.7796 8.57581C10.7093 8.99778 10.7293 9.5606 10.2369 9.72133C8.54817 9.77157 6.85948 9.72133 5.17078 9.74144C5.00998 10.8066 4.85921 11.8617 4.69833 12.9169C4.69833 12.9571 4.70844 13.0476 4.70844 13.0877C5.94476 13.0777 7.18108 13.0877 8.41741 13.0777C8.7592 13.0576 9.12099 13.3491 9.09084 13.7108C9.06073 14.0826 8.98029 14.4443 8.93007 14.8162C8.88978 15.0674 8.68879 15.2985 8.42744 15.3488C7.05035 15.3789 5.65315 15.3186 4.27621 15.3789C4.05501 16.8963 3.79365 18.4136 3.56245 19.9311C3.53237 20.2326 3.29106 20.4939 2.98952 20.5038C2.41665 20.5139 1.84363 20.5139 1.27076 20.5038C0.898857 20.5139 0.597283 20.1018 0.697758 19.7501C1.31108 15.791 1.9443 11.8418 2.57751 7.8824ZM12.7898 7.33968C13.3126 7.29955 13.8452 7.32968 14.368 7.31969C14.6897 7.29958 15.0113 7.55076 15.0414 7.8824C15.0414 8.14361 14.971 8.40493 14.9409 8.66618C14.5187 11.3594 14.0865 14.0525 13.6643 16.7457C13.604 17.1778 13.4935 17.64 13.6241 18.0822C13.7749 18.5243 14.4483 18.3334 14.6092 18.7956C14.7097 19.1674 14.599 19.5593 14.5689 19.9412C14.5388 20.4437 13.9658 20.5541 13.5739 20.6648C12.7195 20.8256 11.6841 20.705 11.071 20.0015C10.6287 19.4891 10.5985 18.7655 10.6891 18.1224C11.2218 14.7057 11.7545 11.2891 12.2974 7.86229C12.3275 7.61104 12.5285 7.37993 12.7898 7.33968ZM32.7422 7.8824C32.7723 7.5809 33.0437 7.31969 33.3453 7.31969H34.8731C35.255 7.30958 35.5667 7.72163 35.4762 8.08333C35.1244 10.3143 34.7626 12.5452 34.4108 14.7759C34.9435 14.6956 35.5466 14.5951 35.9186 14.163C36.5417 13.4595 37.0544 12.6457 37.4363 11.7915C37.5669 11.4599 37.6373 10.9775 38.0695 10.9172C38.6425 10.8971 39.2254 10.9071 39.7984 10.9172C40.1904 10.9071 40.4819 11.3493 40.3512 11.711C40.2005 12.2438 39.9492 12.7361 39.6879 13.2084C39.1048 14.153 38.4616 15.0875 37.6172 15.8312C37.9891 16.9466 38.4616 18.0319 38.8737 19.1273C38.9943 19.489 39.2859 19.9111 39.0144 20.2629C38.7027 20.6849 38.1198 20.4738 37.6876 20.524C37.2352 20.4738 36.5819 20.7049 36.3306 20.1924C35.8581 19.0971 35.4662 17.9717 34.9837 16.8763C34.7022 16.8862 34.4108 16.8964 34.1293 16.8662C34.1093 16.9065 34.069 16.9868 34.0489 17.027C33.8981 18.0319 33.7373 19.0368 33.5764 20.0417C33.5161 20.2829 33.3251 20.4939 33.0638 20.514C32.5311 20.5341 31.9883 20.524 31.4455 20.524C31.2143 20.524 31.0033 20.3733 30.9027 20.1723C30.8022 19.9713 30.8625 19.7403 30.8928 19.5192C31.5159 15.6402 32.129 11.7613 32.7422 7.8824ZM60.6754 8.97775C60.7458 8.69629 61.0171 8.50542 61.2987 8.51542C61.7007 8.52553 62.1128 8.50542 62.5249 8.52553C62.8566 8.53552 63.1179 8.86716 63.0777 9.18872C63.0174 9.76154 62.8766 10.3344 62.8365 10.9071C63.2285 10.9071 63.6305 10.8971 64.0225 10.9071C64.3744 10.9071 64.6659 11.2689 64.6055 11.6105C64.5553 11.9221 64.4849 12.2236 64.4346 12.535C64.3844 12.7964 64.1633 13.0074 63.912 13.0475C63.4295 13.0777 62.9571 13.0274 62.4847 13.0777C62.2837 14.4242 62.0625 15.7707 61.8514 17.1174C61.8212 17.4289 61.8012 17.7806 61.9821 18.0519C62.2535 18.3836 62.7259 18.2629 63.1079 18.3032C63.4094 18.3936 63.6004 18.7253 63.5501 19.0268C63.4998 19.3684 63.4898 19.7101 63.4094 20.0416C63.2888 20.4134 62.8566 20.4838 62.5248 20.5742C61.6102 20.8155 60.5548 20.8155 59.7407 20.2828C58.9868 19.7703 58.8661 18.7755 58.9465 17.9313C59.1576 16.3033 59.4894 14.6855 59.6703 13.0475C59.3888 13.0575 59.047 13.0977 58.836 12.8465C58.5948 12.5953 58.7154 12.2235 58.7556 11.9119C58.8159 11.5803 58.8058 11.1482 59.1677 10.9673C59.4592 10.8567 59.791 10.9372 60.1025 10.8969C60.2935 10.2539 60.4744 9.61081 60.6754 8.97775ZM54.9963 12.2336C55.6295 11.6005 56.3934 11.0779 57.2679 10.8167C57.6498 10.6459 58.1424 10.9675 58.1324 11.3895C58.062 11.9422 57.9313 12.4848 57.8409 13.0274C57.8006 13.2988 57.5694 13.5299 57.298 13.5601C56.313 13.7308 55.4586 14.3236 54.7751 15.0272C54.6043 15.2383 54.353 15.4392 54.3228 15.7306C54.1118 17.1375 53.8906 18.5443 53.6695 19.9512C53.6394 20.2526 53.3779 20.5441 53.0664 20.524H51.5385C51.1867 20.5441 50.8752 20.1925 50.9154 19.8407C51.3576 17.0571 51.8 14.2836 52.2321 11.5C52.2522 11.2186 52.4533 10.9473 52.7447 10.9171C53.1166 10.897 53.4885 10.9071 53.8705 10.9071C54.1721 10.9071 54.4534 11.1784 54.4534 11.49C54.4534 11.922 54.4133 12.3642 54.4032 12.8063C54.6445 12.6557 54.7953 12.4145 54.9963 12.2336ZM17.4236 10.9573C17.9664 10.8469 18.5293 10.9373 19.0721 10.9071C19.3837 10.867 19.7154 11.0679 19.7656 11.3795C19.8059 11.6608 19.7254 11.9321 19.6952 12.2035C19.2832 14.7862 18.871 17.3687 18.4689 19.9513C18.4388 20.2428 18.1976 20.5342 17.886 20.5241C17.3432 20.5241 16.8004 20.5342 16.2476 20.5141C15.9058 20.4738 15.6545 20.082 15.745 19.7503C16.1773 17.0673 16.5894 14.3942 17.0216 11.7111C17.0417 11.4196 17.1221 11.0779 17.4236 10.9573ZM49.9504 11.0881C48.4527 10.8066 46.9249 10.6056 45.4071 10.7564C44.0501 10.9272 42.6831 11.5403 41.8489 12.6557C40.693 14.1228 40.3009 16.0925 40.5622 17.9215C40.703 18.7957 41.0849 19.68 41.7986 20.2226C42.462 20.7352 43.3566 20.8054 44.1608 20.6748C45.2864 20.4537 46.2413 19.7303 47.0254 18.9263C47.0655 19.268 46.9851 19.6097 47.0053 19.9413C47.0254 20.2527 47.3068 20.5441 47.6184 20.524H48.6437C48.9453 20.524 49.1966 20.2428 49.2167 19.9513C49.6489 17.228 50.0811 14.5147 50.5033 11.8015C50.5635 11.4598 50.2922 11.1282 49.9504 11.0881ZM47.126 15.8211C46.7239 16.5748 46.1609 17.2582 45.5277 17.8409C45.1659 18.1424 44.7035 18.454 44.211 18.3535C43.7285 18.253 43.4973 17.7506 43.3868 17.3184C43.1355 16.193 43.3667 14.9669 43.9999 13.9922C44.2813 13.5399 44.7336 13.1983 45.2563 13.0576C45.9901 12.8767 46.7641 12.9671 47.4778 13.1681L47.518 13.2084C47.4275 14.0826 47.2566 14.9469 47.126 15.8211ZM30.2193 14.3138C30.2092 13.3089 29.9378 12.2537 29.2342 11.5C28.7518 10.9675 28.028 10.6961 27.3244 10.7061C26.1584 10.666 25.0628 11.2388 24.2085 12.0025C24.0174 12.1533 23.8868 12.3743 23.6758 12.4949C23.6758 12.1632 23.7059 11.8316 23.6958 11.49C23.7059 11.1784 23.4144 10.9071 23.1128 10.9071H22.0875C21.766 10.9071 21.5046 11.1885 21.4845 11.5C20.8512 15.5196 20.208 19.5392 19.5747 23.5589C19.4843 23.9307 19.806 24.3126 20.1879 24.3025C20.7508 24.2925 21.3237 24.3427 21.8765 24.2622C22.3188 24.1416 22.3087 23.6291 22.3791 23.2574C22.5399 22.373 22.6506 21.4887 22.751 20.5943C24.7312 20.9762 27.033 20.715 28.5105 19.2176C29.7167 17.9013 30.2795 16.0824 30.2193 14.3138ZM27.4049 15.3287C27.3446 16.2532 27.0128 17.1878 26.3696 17.861C25.5354 18.655 24.2687 18.5443 23.2435 18.2731C23.2235 18.2429 23.1933 18.1826 23.1832 18.1525C23.344 17.2783 23.4245 16.3939 23.6255 15.5297C24.1884 14.6053 24.8718 13.6706 25.8468 13.1582C26.2087 12.9874 26.7012 13.0275 26.9626 13.3592C27.4049 13.9118 27.4451 14.6555 27.4049 15.3287Z" fill="#107BD4" stroke="#107BD4" stroke-width="0.0375143"/>
</g>
<defs>
<linearGradient id="paint0_linear_1350_2413" x1="86.207" y1="4.39523" x2="86.207" y2="25.9982" gradientUnits="userSpaceOnUse">
<stop stop-color="#F7E830"/>
<stop offset="1" stop-color="#FDCB06"/>
</linearGradient>
<radialGradient id="paint1_radial_1350_2413" cx="0" cy="0" r="1" gradientUnits="userSpaceOnUse" gradientTransform="translate(86.0944 14.2484) scale(17.5759 17.5716)">
<stop offset="0.596" stop-color="#F29405"/>
<stop offset="0.736" stop-color="#F7D01E"/>
<stop offset="1" stop-color="#FDCB06"/>
</radialGradient>
<linearGradient id="paint2_linear_1350_2413" x1="92.2198" y1="5.17501" x2="92.2259" y2="6.198" gradientUnits="userSpaceOnUse">
<stop stop-color="#FADA1C"/>
<stop offset="1" stop-color="#FDCB06"/>
</linearGradient>
<linearGradient id="paint3_linear_1350_2413" x1="80.1838" y1="5.12609" x2="80.1776" y2="6.14907" gradientUnits="userSpaceOnUse">
<stop stop-color="#FADA1C"/>
<stop offset="1" stop-color="#FDCB06"/>
</linearGradient>
<clipPath id="clip0_1350_2413">
<rect width="98.6471" height="26" fill="white" transform="translate(0.67627)"/>
</clipPath>
</defs>
</svg>
