<svg width="124" height="36" viewBox="0 0 124 36" fill="none" xmlns="http://www.w3.org/2000/svg">
<g clip-path="url(#clip0_1317_1679)">
<path d="M57.2298 23.553H51.0486L50.0258 26.5102H46.7573L52.3382 10.9683H55.9624L61.5433 26.5102H58.2526L57.2298 23.553ZM56.3849 21.0628L54.1392 14.5703L51.8935 21.0628H56.3849Z" fill="white"/>
<path d="M65.208 12.7248C64.6595 12.7248 64.2 12.5544 63.8294 12.2134C63.4737 11.8577 63.2958 11.4204 63.2958 10.9016C63.2958 10.3828 63.4737 9.95293 63.8294 9.612C64.2 9.25624 64.6595 9.07837 65.208 9.07837C65.7564 9.07837 66.2085 9.25624 66.5643 9.612C66.9348 9.95293 67.1201 10.3828 67.1201 10.9016C67.1201 11.4204 66.9348 11.8577 66.5643 12.2134C66.2085 12.5544 65.7564 12.7248 65.208 12.7248ZM66.7421 14.1923V26.5102H63.6293V14.1923H66.7421Z" fill="white"/>
<path d="M81.6019 14.1923L73.9755 32.3356H70.6625L73.3307 26.1989L68.3946 14.1923H71.8854L75.0649 22.797L78.2889 14.1923H81.6019Z" fill="white"/>
<path d="M95.0642 14.1923L87.4377 32.3356H84.1248L86.7929 26.1989L81.8569 14.1923H85.3477L88.5272 22.797L91.7512 14.1923H95.0642Z" fill="white"/>
<path d="M103.568 14.0144C105.036 14.0144 106.221 14.4813 107.126 15.4152C108.03 16.3342 108.482 17.6238 108.482 19.284V26.5102H105.369V19.7065C105.369 18.7281 105.125 17.9796 104.635 17.4608C104.146 16.9271 103.479 16.6603 102.634 16.6603C101.775 16.6603 101.093 16.9271 100.589 17.4608C100.1 17.9796 99.855 18.7281 99.855 19.7065V26.5102H96.7422V14.1923H99.855V15.7265C100.27 15.1929 100.796 14.7778 101.434 14.4813C102.086 14.1701 102.797 14.0144 103.568 14.0144Z" fill="white"/>
<path d="M110.642 20.3068C110.642 19.0617 110.886 17.9573 111.375 16.9938C111.879 16.0304 112.554 15.2892 113.399 14.7704C114.258 14.2516 115.215 13.9922 116.267 13.9922C117.186 13.9922 117.986 14.1775 118.668 14.5481C119.365 14.9186 119.921 15.3856 120.336 15.9488V14.1923H123.471V26.5102H120.336V24.7092C119.936 25.2873 119.38 25.7691 118.668 26.1545C117.972 26.525 117.164 26.7103 116.245 26.7103C115.207 26.7103 114.258 26.4435 113.399 25.9099C112.554 25.3762 111.879 24.6277 111.375 23.6642C110.886 22.6859 110.642 21.5667 110.642 20.3068ZM120.336 20.3513C120.336 19.5953 120.188 18.9505 119.891 18.4169C119.595 17.8684 119.195 17.4534 118.691 17.1717C118.187 16.8753 117.646 16.727 117.067 16.727C116.489 16.727 115.956 16.8678 115.467 17.1495C114.977 17.4311 114.577 17.8462 114.266 18.3946C113.969 18.9282 113.821 19.5656 113.821 20.3068C113.821 21.0479 113.969 21.7001 114.266 22.2634C114.577 22.8119 114.977 23.2343 115.467 23.5308C115.971 23.8272 116.504 23.9755 117.067 23.9755C117.646 23.9755 118.187 23.8347 118.691 23.553C119.195 23.2566 119.595 22.8415 119.891 22.3079C120.188 21.7594 120.336 21.1072 120.336 20.3513Z" fill="white"/>
<circle cx="17.9586" cy="17.9586" r="16.2483" stroke="#5147FE" stroke-width="3.42069"/>
<circle cx="17.9585" cy="17.9587" r="12.154" fill="url(#paint0_linear_1317_1679)" fill-opacity="0.6" stroke="white" stroke-width="0.363259"/>
<mask id="mask0_1317_1679" style="mask-type:alpha" maskUnits="userSpaceOnUse" x="5" y="5" width="25" height="25">
<circle cx="17.9585" cy="17.9587" r="11.9724" fill="#635AFF"/>
</mask>
<g mask="url(#mask0_1317_1679)">
<path opacity="0.2" d="M4.86598 24.3844L4.08252 21.976L32.7144 10.6689L33.3519 12.6288L4.86598 24.3844Z" fill="url(#paint1_linear_1317_1679)"/>
<path opacity="0.5" d="M0.25497 33.6557L-1.11255 29.4519L48.8639 9.71558L49.9768 13.1365L0.25497 33.6557Z" fill="url(#paint2_linear_1317_1679)"/>
<g filter="url(#filter0_f_1317_1679)">
<path d="M-6.15163 13.797L-4.24452 17.2139L34.6923 0.606161L31.9111 -2.81074L-6.15163 13.797Z" fill="white" fill-opacity="0.4"/>
</g>
</g>
</g>
<defs>
<filter id="filter0_f_1317_1679" x="-16.1412" y="-12.8004" width="60.8232" height="40.0039" filterUnits="userSpaceOnUse" color-interpolation-filters="sRGB">
<feFlood flood-opacity="0" result="BackgroundImageFix"/>
<feBlend mode="normal" in="SourceGraphic" in2="BackgroundImageFix" result="shape"/>
<feGaussianBlur stdDeviation="4.99481" result="effect1_foregroundBlur_1317_1679"/>
</filter>
<linearGradient id="paint0_linear_1317_1679" x1="17.9585" y1="29.5121" x2="17.9585" y2="5.98633" gradientUnits="userSpaceOnUse">
<stop offset="0.262951" stop-color="#7972FF"/>
<stop offset="1" stop-color="#D1CEFF"/>
</linearGradient>
<linearGradient id="paint1_linear_1317_1679" x1="-4225.8" y1="4400.54" x2="-3506.29" y2="5861.46" gradientUnits="userSpaceOnUse">
<stop offset="0.2" stop-color="white"/>
</linearGradient>
<linearGradient id="paint2_linear_1317_1679" x1="-6323.83" y1="7343.45" x2="-5068.8" y2="9892.21" gradientUnits="userSpaceOnUse">
<stop offset="0.2" stop-color="white"/>
</linearGradient>
<clipPath id="clip0_1317_1679">
<rect width="124" height="36" fill="white"/>
</clipPath>
</defs>
</svg>
