<svg width="159" height="42" viewBox="0 0 159 42" fill="none" xmlns="http://www.w3.org/2000/svg">
<g clip-path="url(#clip0_43_280)">
<path d="M48.9551 27.9512H60.0634V24.6146H52.9032V12.0468H48.9551V27.9512Z" fill="#BAB8C0"/>
<path d="M66.6452 25.7268C65.0615 25.7268 64.2361 24.3477 64.2361 22.279C64.2361 20.2103 65.0615 18.8089 66.6452 18.8089C68.2289 18.8089 69.0765 20.2103 69.0765 22.279C69.0765 24.3477 68.2289 25.7268 66.6452 25.7268ZM66.6675 28.3071C70.3479 28.3071 72.757 25.7045 72.757 22.279C72.757 18.8534 70.3479 16.2509 66.6675 16.2509C63.0093 16.2509 60.5557 18.8534 60.5557 22.279C60.5557 25.7045 63.0093 28.3071 66.6675 28.3071Z" fill="#BAB8C0"/>
<path d="M79.1275 31.8884C80.8227 31.8884 82.3172 31.5102 83.321 30.6205C84.2355 29.7974 84.8378 28.5518 84.8378 26.839V16.5623H81.3581V17.7857H81.3135C80.6443 16.8293 79.6182 16.2287 78.1014 16.2287C75.2686 16.2287 73.3057 18.5865 73.3057 21.9231C73.3057 25.4154 75.6924 27.3284 78.2576 27.3284C79.6405 27.3284 80.5105 26.7723 81.1796 26.016H81.2689V27.1504C81.2689 28.5295 80.622 29.3303 79.0829 29.3303C77.8784 29.3303 77.2761 28.8187 77.0754 28.2181H73.551C73.9079 30.5982 75.9824 31.8884 79.1275 31.8884ZM79.1052 24.6369C77.7445 24.6369 76.8523 23.5247 76.8523 21.8119C76.8523 20.0769 77.7445 18.9647 79.1052 18.9647C80.622 18.9647 81.425 20.2548 81.425 21.7896C81.425 23.3912 80.6889 24.6369 79.1052 24.6369Z" fill="#BAB8C0"/>
<path d="M91.9928 25.7268C90.4091 25.7268 89.5838 24.3477 89.5838 22.279C89.5838 20.2103 90.4091 18.8089 91.9928 18.8089C93.5765 18.8089 94.4242 20.2103 94.4242 22.279C94.4242 24.3477 93.5765 25.7268 91.9928 25.7268ZM92.0151 28.3071C95.6956 28.3071 98.1046 25.7045 98.1046 22.279C98.1046 18.8534 95.6956 16.2509 92.0151 16.2509C88.357 16.2509 85.9033 18.8534 85.9033 22.279C85.9033 25.7045 88.357 28.3071 92.0151 28.3071Z" fill="#BAB8C0"/>
<path d="M99.166 27.9512H102.802V16.5623H99.166V27.9512ZM99.166 14.983H102.802V12.0468H99.166V14.983Z" fill="#BAB8C0"/>
<path d="M104.38 31.7104H108.016V26.7723H108.06C108.774 27.7288 109.823 28.3071 111.295 28.3071C114.284 28.3071 116.269 25.9493 116.269 22.2568C116.269 18.8312 114.418 16.2287 111.384 16.2287C109.823 16.2287 108.707 16.9182 107.927 17.9414H107.86V16.5623H104.38V31.7104ZM110.358 25.5044C108.796 25.5044 107.904 24.2365 107.904 22.3902C107.904 20.544 108.707 19.1426 110.291 19.1426C111.852 19.1426 112.588 20.4328 112.588 22.3902C112.588 24.3254 111.741 25.5044 110.358 25.5044Z" fill="#BAB8C0"/>
<path d="M122.188 28.3071C125.177 28.3071 127.385 27.017 127.385 24.5256C127.385 21.6117 125.021 21.1001 123.013 20.7664C121.563 20.4995 120.27 20.3883 120.27 19.5875C120.27 18.8757 120.961 18.542 121.853 18.542C122.857 18.542 123.549 18.8534 123.682 19.8767H127.028C126.85 17.63 125.11 16.2287 121.876 16.2287C119.177 16.2287 116.946 17.4743 116.946 19.8767C116.946 22.5459 119.065 23.0798 121.05 23.4134C122.567 23.6804 123.95 23.7916 123.95 24.8148C123.95 25.5489 123.259 25.9493 122.166 25.9493C120.961 25.9493 120.203 25.3932 120.069 24.2587H116.634C116.745 26.7723 118.842 28.3071 122.188 28.3071Z" fill="#BAB8C0"/>
<path d="M132.325 28.2849C133.908 28.2849 134.912 27.662 135.737 26.5498H135.804V27.9512H139.284V16.5623H135.648V22.9241C135.648 24.281 134.89 25.2152 133.641 25.2152C132.481 25.2152 131.923 24.5256 131.923 23.28V16.5623H128.31V24.0363C128.31 26.5721 129.693 28.2849 132.325 28.2849Z" fill="#BAB8C0"/>
<path d="M140.865 27.9512H144.501V21.5672C144.501 20.2103 145.17 19.2538 146.307 19.2538C147.4 19.2538 147.913 19.9656 147.913 21.1891V27.9512H151.549V21.5672C151.549 20.2103 152.196 19.2538 153.356 19.2538C154.449 19.2538 154.962 19.9656 154.962 21.1891V27.9512H158.598V20.544C158.598 17.9859 157.304 16.2287 154.717 16.2287C153.245 16.2287 152.018 16.8515 151.125 18.2306H151.081C150.501 17.0072 149.363 16.2287 147.869 16.2287C146.218 16.2287 145.125 17.0072 144.411 18.1861H144.344V16.5623H140.865V27.9512Z" fill="#BAB8C0"/>
<path fill-rule="evenodd" clip-rule="evenodd" d="M19.9799 39.0731C30.2459 39.0731 38.5681 30.774 38.5681 20.5366C38.5681 10.2991 30.2459 2 19.9799 2C9.71382 2 1.3916 10.2991 1.3916 20.5366C1.3916 30.774 9.71382 39.0731 19.9799 39.0731ZM25.7787 10.6351C26.061 9.63527 25.088 9.04402 24.1994 9.67535L11.7946 18.4879C10.8309 19.1725 10.9825 20.5366 12.0223 20.5366H15.2888V20.5113H21.6551L16.4678 22.3366L14.181 30.4381C13.8987 31.4379 14.8716 32.0291 15.7603 31.3978L28.1651 22.5853C29.1288 21.9007 28.9771 20.5366 27.9374 20.5366H22.9838L25.7787 10.6351Z" fill="#BAB8C0"/>
</g>
<defs>
<clipPath id="clip0_43_280">
<rect width="158" height="42" fill="white" transform="translate(0.755859)"/>
</clipPath>
</defs>
</svg>
