<svg width="82" height="26" viewBox="0 0 82 26" fill="none" xmlns="http://www.w3.org/2000/svg">
<g clip-path="url(#clip0_1350_1650)">
<mask id="mask0_1350_1650" style="mask-type:luminance" maskUnits="userSpaceOnUse" x="0" y="0" width="82" height="26">
<path d="M81.1471 0H0.853027V26H81.1471V0Z" fill="white"/>
</mask>
<g mask="url(#mask0_1350_1650)">
<path d="M76.2755 10.9529C77.48 10.5542 78.8045 10.2883 80.0494 10.6871C80.7583 10.9264 81.1467 11.6708 81.133 12.3885C81.1467 13.8507 81.1735 15.3262 81.1062 16.7883C80.678 16.7883 80.2497 16.7883 79.8353 16.7883C79.7817 16.5491 79.7412 16.3231 79.6877 16.0971C78.8985 16.7219 77.8409 17.1738 76.8242 16.7883C75.6733 16.3364 75.5261 14.6217 76.3959 13.8241C77.2658 13.0133 78.5238 13.0133 79.6342 12.7607C79.5676 12.3885 79.5141 11.9101 79.0721 11.8037C78.1889 11.5379 77.2925 11.9366 76.4495 12.1759C76.3692 11.7771 76.3156 11.365 76.2755 10.9529ZM77.6803 14.3426C77.2658 14.6615 77.2524 15.4591 77.7874 15.6718C78.4297 15.9111 79.0591 15.4724 79.5806 15.1268C79.5806 14.6482 79.5806 14.1698 79.5806 13.7045C78.9253 13.8241 78.2026 13.8906 77.6803 14.3426Z" fill="#231F20"/>
<path d="M43.0606 8.01543C43.7699 7.97551 44.4925 7.96221 45.2018 7.98882C46.0449 10.1289 46.5936 12.3753 47.5036 14.4888C48.253 12.3355 48.9488 10.1555 49.6983 8.00213C50.4075 7.97551 51.1168 7.97551 51.8394 8.00213C52.0402 10.9264 52.348 13.8641 52.4818 16.7884C51.9331 16.7884 51.3844 16.7884 50.8358 16.7884C50.635 14.7015 50.5547 12.6013 50.3406 10.5011C49.4975 12.5615 48.8953 14.7015 48.1325 16.7884C47.624 16.815 47.1021 16.8017 46.5802 16.7751C45.8308 14.6882 45.2419 12.5481 44.3587 10.5144C44.1847 12.6013 44.0911 14.6882 43.9037 16.7751C43.4086 16.7751 42.9134 16.7751 42.4316 16.7751C42.5521 13.8507 42.8733 10.9397 43.0606 8.01543Z" fill="#231F20"/>
<path d="M67.5235 8.68003C68.0186 8.57366 68.5271 8.5072 69.0357 8.46729C69.049 9.17181 69.049 9.87633 69.049 10.5941C69.4639 10.6074 69.8788 10.6207 70.2937 10.634C70.374 11.0327 70.4408 11.4448 70.5077 11.8568C70.026 11.8835 69.5442 11.8968 69.0624 11.9101C69.0758 12.9867 68.9955 14.0634 69.1026 15.1268C69.2632 15.6452 69.9457 15.499 70.3606 15.592C70.4409 16.0041 70.4943 16.4162 70.5479 16.8283C69.7583 16.908 68.8751 17.0143 68.1792 16.5624C67.7108 16.2567 67.5636 15.6851 67.5502 15.1667C67.4967 14.0767 67.5636 13 67.5235 11.9101C67.229 11.8835 66.948 11.8568 66.667 11.817C66.6804 11.4315 66.6938 11.0327 66.7071 10.6472C66.9882 10.6207 67.2692 10.5941 67.5502 10.5675C67.4967 9.94279 67.5101 9.31802 67.5235 8.68003Z" fill="#231F20"/>
<path d="M53.4185 10.7536C53.9538 10.6473 54.489 10.5941 55.0243 10.5675C55.5061 11.9765 55.9477 13.4121 56.4429 14.8211C56.9514 13.452 57.3529 12.0429 57.7945 10.6473C58.303 10.6207 58.8249 10.6073 59.3335 10.6073C58.758 12.4816 58.0086 14.3027 57.3662 16.1503C57.0317 17.0011 56.8176 17.9714 56.1217 18.6227C55.5463 19.1412 54.7165 19.1677 53.9805 19.0348C53.9136 18.6227 53.8467 18.224 53.7798 17.8119C54.1411 17.8119 54.5024 17.8252 54.8504 17.772C55.3321 17.6125 55.747 17.0276 55.5329 16.5225C54.8504 14.5951 54.0876 12.6943 53.4185 10.7536Z" fill="#231F20"/>
<path d="M60.3507 10.6075C60.7789 10.6075 61.2205 10.6208 61.6488 10.6208C61.7023 10.8866 61.7692 11.1525 61.8227 11.4183C62.4918 10.8733 63.2814 10.3549 64.1914 10.4879C64.981 10.5145 65.6099 11.2322 65.6233 12.0032C65.6635 13.585 65.6367 15.1801 65.6367 16.7619C65.1416 16.7752 64.6464 16.7752 64.1646 16.7885C64.0308 15.3529 64.1914 13.904 64.0843 12.4551C64.0174 11.857 63.2814 11.7108 62.813 11.95C62.4249 12.1494 61.8896 12.4153 61.9164 12.9337C61.8896 14.2098 61.9298 15.4858 61.9164 16.7752C61.3945 16.7885 60.8726 16.7885 60.3507 16.7752C60.3507 14.7148 60.3373 12.6678 60.3507 10.6075Z" fill="#231F20"/>
<path d="M71.6855 10.6074C72.1272 10.6074 72.5688 10.6074 73.0104 10.6074C73.0639 10.9663 73.1175 11.3252 73.1844 11.6841C73.733 11.1259 74.3352 10.5276 75.165 10.4612C75.2988 10.953 75.3657 11.4581 75.3925 11.9632C74.5761 12.1493 73.6394 12.4817 73.2647 13.2925C73.1844 14.449 73.278 15.6054 73.2379 16.7618C72.716 16.7751 72.2075 16.7618 71.6855 16.7485C71.6989 14.7148 71.6855 12.6677 71.6855 10.6074Z" fill="#231F20"/>
<path d="M8.82868 2.32616C9.59147 1.43557 10.4078 0.46522 11.5587 0.106324C12.8568 -0.239279 13.9541 0.784239 14.7704 1.63495C16.9116 4.05417 18.4506 6.92534 19.8959 9.78323C20.6854 8.04192 21.649 6.38035 22.666 4.75868C23.6296 3.2965 24.6332 1.80775 26.0116 0.691191C26.654 0.19937 27.5506 -0.265864 28.3401 0.146201C29.4776 0.74436 30.3341 1.728 31.1371 2.69835C32.8366 4.8916 34.1748 7.32412 35.3793 9.79653C36.8915 12.9867 38.1895 16.3098 38.7382 19.8057C38.8988 21.4274 39.046 23.2485 38.0691 24.6574C37.3063 25.7607 35.861 26.1462 34.5897 25.9202C33.479 25.5347 32.5021 24.8037 31.766 23.8865C30.0397 21.7597 29.0093 19.1809 28.0457 16.6421C27.8985 16.2035 27.7379 15.7648 27.5773 15.3129C27.4703 15.7648 27.3498 16.2035 27.2026 16.6421C26.2257 19.2208 25.1819 21.8394 23.4021 23.9795C22.6928 24.8568 21.7426 25.5215 20.6721 25.9069C19.1331 26.2259 17.6343 25.4284 16.644 24.3119C14.6901 22.1984 13.6062 19.4867 12.6159 16.8415C12.4285 16.2965 12.2278 15.7515 12.094 15.1932C11.9334 15.7648 11.746 16.3098 11.5319 16.8681C10.6353 19.3139 9.60485 21.7597 7.97221 23.8067C7.08897 24.8568 5.92471 25.8937 4.47941 25.9601C3.14118 26.0797 1.84309 25.2158 1.33456 24.0061C0.598536 22.3313 0.812653 20.4305 1.14721 18.6758C1.84309 15.3261 3.1278 12.1227 4.64 9.0654C5.84441 6.72596 7.16927 4.39978 8.82868 2.32616ZM9.59147 3.05724C7.94544 5.15745 6.63397 7.48362 5.45633 9.86299C3.98427 12.9335 2.65941 16.137 2.09736 19.5C1.89662 20.4305 1.89662 21.4008 1.9903 22.3446C2.09736 23.2352 2.45868 24.1922 3.28838 24.6574C4.07794 25.1227 5.095 24.9366 5.81765 24.4315C7.10235 23.5409 7.95882 22.1718 8.69485 20.8293C10.274 17.8251 11.3178 14.5552 12.1074 11.272C12.9371 14.6482 13.9943 17.9979 15.6537 21.0685C16.3094 22.1984 17.0187 23.3814 18.1026 24.1657C18.6513 24.6574 19.374 24.9898 20.11 24.91C20.9397 24.8303 21.649 24.2986 22.2244 23.7269C23.2281 22.7035 23.9507 21.4539 24.5931 20.1912C25.9581 17.3998 26.9082 14.4355 27.6443 11.4182C28.5676 15.0603 29.7051 18.7025 31.6723 21.9325C32.4084 23.0623 33.2782 24.2321 34.5763 24.7638C35.4863 25.136 36.6372 24.8037 37.1591 23.9662C37.7881 22.9561 37.8416 21.7065 37.7479 20.5501C37.6141 18.6891 37.0654 16.8814 36.4766 15.1268C35.2856 11.7239 33.7065 8.45394 31.7794 5.39672C30.8962 4.02759 29.9728 2.65847 28.7282 1.58178C28.2866 1.1963 27.6443 0.824118 27.0822 1.2096C26.0116 1.86092 25.2622 2.89773 24.5262 3.86808C22.7062 6.44682 21.2073 9.25153 19.9762 12.1493C19.936 12.1891 19.8691 12.2822 19.829 12.3221C19.7219 11.9898 19.6148 11.6708 19.4676 11.3517C18.2097 8.64007 16.8046 5.98158 15.0113 3.56235C14.3957 2.76481 13.7668 1.95397 12.9504 1.3691C12.6025 1.11655 12.1341 0.903869 11.7059 1.11655C10.836 1.52861 10.2071 2.32616 9.59147 3.05724Z" fill="#FEFEFE"/>
<path d="M9.59148 3.05737C10.2071 2.32629 10.8227 1.52874 11.7193 1.12996C12.1475 0.917292 12.6159 1.12996 12.9638 1.38252C13.7935 1.96739 14.4225 2.77823 15.0247 3.57578C16.8046 5.995 18.2097 8.65347 19.481 11.3651C19.6282 11.6708 19.7353 12.0032 19.8424 12.3355C18.2097 9.55735 16.6975 6.67291 14.6366 4.17394C14.0344 3.46944 13.4054 2.72506 12.5356 2.35287C12.0404 2.14019 11.5319 2.41933 11.1304 2.68518C9.65839 3.90809 8.56103 5.51647 7.5306 7.11156C5.1084 10.9398 3.2884 15.1402 2.08398 19.5001C2.64604 16.1238 3.9709 12.9337 5.44295 9.86308C6.63398 7.48375 7.94545 5.15757 9.59148 3.05737Z" fill="#9E242E"/>
<path d="M27.0955 1.22289C27.6575 0.83741 28.2999 1.2096 28.7415 1.59508C29.9861 2.67177 30.9095 4.04089 31.7927 5.41001C33.7197 8.46728 35.2989 11.7372 36.4899 15.1401C37.0921 16.8946 37.6408 18.7024 37.7612 20.5634C37.5605 19.2607 37.2259 17.9847 36.7709 16.7484C35.6334 13.3456 34.0677 10.1022 32.154 7.07157C31.3243 5.76891 30.4277 4.49283 29.3571 3.37627C28.9289 2.95091 28.4605 2.51226 27.8717 2.31287C27.4167 2.16666 26.9884 2.48567 26.6271 2.71165C25.6368 3.4826 24.8606 4.49283 24.1246 5.48977C22.8131 7.32412 21.6622 9.26479 20.605 11.2587C20.4311 11.5777 20.217 11.8701 19.9761 12.1493C21.2073 9.25156 22.7061 6.44682 24.5261 3.86808C25.2889 2.89774 26.0249 1.86093 27.0955 1.22289Z" fill="#9E242E"/>
<path d="M11.1439 2.68509C11.5454 2.41924 12.0539 2.1401 12.5491 2.35278C13.4189 2.72497 14.0479 3.46934 14.6501 4.17384C16.711 6.67282 18.2098 9.55729 19.8558 12.3354C18.8254 15.2332 17.6076 18.1575 17.5407 21.2679C17.4871 22.2649 17.7548 23.2485 18.1295 24.1657C17.0455 23.3814 16.3496 22.1984 15.6805 21.0686C14.0211 17.998 12.9639 14.6483 12.1342 11.272C11.5052 8.45397 10.9432 5.58284 11.1439 2.68509Z" fill="#FF912E"/>
<path d="M26.6404 2.72497C27.0151 2.499 27.43 2.17998 27.885 2.3262C28.4738 2.51229 28.9288 2.96424 29.3704 3.38959C30.441 4.50616 31.3376 5.78223 32.1673 7.08488C34.081 10.1155 35.6467 13.3722 36.7842 16.7618C37.2259 17.998 37.5604 19.274 37.7745 20.5767C37.8682 21.7332 37.8147 22.9826 37.1857 23.9929C36.6638 24.8435 35.5129 25.1626 34.6029 24.7904C33.3048 24.272 32.435 23.089 31.6989 21.9592C29.7317 18.729 28.5809 15.0869 27.6709 11.4448C27.0285 8.5869 26.4531 5.6626 26.6404 2.72497Z" fill="#F41CB2"/>
<path d="M7.54417 7.11144C8.5746 5.51634 9.65857 3.90796 11.144 2.68506C10.9567 5.58281 11.5053 8.45398 12.1209 11.272C11.3314 14.5685 10.2875 17.8251 8.70843 20.8292C7.9724 22.1717 7.11593 23.5409 5.83123 24.4315C5.10858 24.9366 4.09152 25.1227 3.30196 24.6575C2.47226 24.1922 2.12432 23.2351 2.00388 22.3446C1.89682 21.4008 1.9102 20.4305 2.11094 19.5C3.30196 15.1401 5.12196 10.953 7.54417 7.11144Z" fill="#F41CB2"/>
<path d="M24.1382 5.50309C24.8742 4.49287 25.6504 3.49594 26.6407 2.72498C26.4534 5.6626 27.0288 8.58692 27.6578 11.4316C26.9217 14.4356 25.9716 17.4131 24.6066 20.2045C23.9642 21.4673 23.2416 22.7168 22.2379 23.7403C21.6625 24.3119 20.9532 24.8303 20.1235 24.9233C19.3741 25.0031 18.6514 24.6575 18.1162 24.179C17.7414 23.2618 17.4738 22.2781 17.5273 21.2812C17.5942 18.1708 18.812 15.2464 19.8425 12.3487C19.8826 12.3088 19.9495 12.2158 19.9897 12.1759C20.2306 11.91 20.4447 11.6043 20.6187 11.2853C21.6759 9.27814 22.8267 7.35074 24.1382 5.50309Z" fill="#F25511"/>
</g>
</g>
<defs>
<clipPath id="clip0_1350_1650">
<rect width="80.2941" height="26" fill="white" transform="translate(0.853027)"/>
</clipPath>
</defs>
</svg>
