<svg width="80" height="26" viewBox="0 0 80 26" fill="none" xmlns="http://www.w3.org/2000/svg">
<path d="M16.29 2.55176C15.3679 2.18426 14.3722 2 13.3765 2C12.7864 2 12.1962 2.0735 11.606 2.18426L9.22722 6.2681C10.2048 5.73446 11.2923 5.4767 12.4171 5.49584C13.0991 5.49584 13.7629 5.58746 14.4085 5.77172L16.29 2.55176ZM2 13.5336C2 19.4198 7.01487 24 12.86 24C18.9815 24 23.9238 19.0704 23.9238 13.0735C23.9238 9.56055 22.2269 6.46947 19.7008 4.40943L17.8567 7.59213C19.4789 8.97153 20.4201 10.9953 20.4201 13.1289C20.4201 17.2127 17.0275 20.5605 12.86 20.5605C8.69254 20.5605 5.31802 17.1946 5.31802 13.0373V13.0191C5.31802 12.5227 5.35434 12.0254 5.44715 11.5471L2 13.5336ZM36.1306 8.69565C35.2267 8.67753 34.3601 8.98966 33.6781 9.56055L33.4935 8.89803H31.834V17.3043H33.9545V12.7422C33.9545 11.7676 34.6002 10.7919 35.8541 10.7919C36.8317 10.7919 37.4027 11.4726 37.4027 12.6315V17.3225H39.5232V12.4482C39.5232 10.1677 38.1956 8.69565 36.1306 8.69565ZM60.7469 8.69565C58.3681 8.69565 56.5058 10.6268 56.5058 13.0926C56.5058 15.5574 58.3681 17.4886 60.7469 17.4886C63.1257 17.4886 64.988 15.5574 64.988 13.0926C64.988 10.6268 63.1257 8.69565 60.7469 8.69565ZM62.8483 13.0926C62.8483 14.4358 61.9635 15.4104 60.765 15.4104C59.5666 15.4104 58.6627 14.4358 58.6627 13.0926C58.6627 11.7495 59.5474 10.7748 60.7459 10.7748C61.9454 10.7748 62.8483 11.7495 62.8483 13.0926ZM48.2082 8.69565C45.8294 8.69565 43.9671 10.6268 43.9671 13.0926C43.9671 15.5574 45.8294 17.4886 48.2082 17.4886C50.587 17.4886 52.4493 15.5574 52.4493 13.0926C52.4493 10.6268 50.587 8.69565 48.2082 8.69565ZM50.2914 13.0926C50.2914 14.4358 49.4067 15.4104 48.2082 15.4104C47.0097 15.4104 46.125 14.4358 46.125 13.0926C46.125 11.7495 47.0097 10.7748 48.2082 10.7748C49.4067 10.7748 50.2914 11.7495 50.2914 13.0926ZM73.7648 8.69565C72.8608 8.67753 71.9943 8.98966 71.3123 9.56055L71.1277 8.89803H69.4682V17.3043H71.5706V12.7422C71.5706 11.7676 72.2162 10.7919 73.4702 10.7919C74.4477 10.7919 75.0379 11.4726 75.0379 12.6315V17.3225H77.1574V12.4482C77.1393 10.1677 75.8117 8.69565 73.7648 8.69565Z" fill="#010101"/>
</svg>
