<svg width="80" height="26" viewBox="0 0 80 26" fill="none" xmlns="http://www.w3.org/2000/svg">
<path d="M23.6056 1.95365C24.4406 0.350566 21.7354 0.801432 21.7354 0.801432C20.7668 0.801432 20.3327 1.97035 20.1323 2.30432L17.21 8.0654C16.6589 9.01723 14.8388 13.0917 14.2376 13.9935C14.1875 13.075 14.2543 11.2382 14.271 10.804C14.3879 9.06733 14.5048 7.74812 14.6885 6.16174C14.8221 4.92603 15.0892 3.54003 14.8388 2.30432C14.6718 1.53618 14.4213 1.48608 13.3192 1.36919C12.167 1.2523 11.3821 2.92218 10.998 3.70702C9.59534 6.61261 8.02566 9.4514 6.77325 12.4238C6.40587 13.2921 5.95501 14.1605 5.57094 15.0121C5.12007 16.0474 4.7026 17.066 4.21833 18.0847C3.70067 19.1534 2.08089 22.6601 1.63002 23.7623C1.12906 24.9646 1.02887 25.9331 3.03272 25.883C3.35 25.883 4.05135 25.9498 4.91968 25.0147C5.60433 24.2799 5.73792 23.5953 6.13869 22.5766C7.57479 18.9697 8.59341 16.5818 10.1631 13.0082C10.3134 12.6576 10.6641 11.6389 11.0147 10.8541C10.998 11.9729 10.8144 13.3088 10.7309 14.1939C10.4637 17.4334 10.28 20.5561 9.99611 23.7623C9.96271 24.1964 9.84582 24.7141 10.0462 25.1149C10.2466 25.5156 10.7476 25.6158 11.1483 25.6659C12.7514 25.8663 12.9184 25.0648 13.4194 23.9626C13.8702 22.9774 14.1374 22.1759 14.5382 21.1739C15.7739 18.0847 17.0764 15.0288 18.5125 12.023C18.8799 11.2549 19.2472 10.5034 19.648 9.75198C20.3828 8.36598 20.9839 7.06347 21.7855 5.52719C22.3866 4.42507 22.9711 3.17266 23.6056 1.95365ZM78.6281 10.6537C78.4444 8.80015 75.9062 9.73528 74.3866 10.0192C73.8189 10.1194 72.0655 10.4533 70.0449 10.8374C69.9614 8.75005 69.9948 9.16752 69.9781 7.89841C69.928 6.06155 69.8279 4.62545 69.7277 3.00567C69.6609 1.98705 69.5106 0.56765 67.6737 0.83483C65.5363 1.13541 65.1856 2.20413 64.6178 3.48994C63.1316 6.84639 63.1817 6.86309 61.4952 10.6036C61.3616 10.8875 60.7437 12.3904 60.6435 12.691C60.5767 12.7077 60.4431 12.7411 60.2761 12.7912C59.5915 12.9414 58.7566 13.1251 57.8381 13.3255L57.8548 13.242C58.0719 11.5387 58.3391 9.83547 58.5729 8.13219C58.79 6.57921 59.0237 4.041 59.2074 2.48801C59.4078 0.818131 57.4707 0.851529 57.4707 0.851529C56.2851 0.784733 55.8343 1.13541 55.0828 2.10394C53.797 3.77381 52.244 5.57728 50.8747 7.41415C48.3866 10.7372 46.5664 13.242 44.3121 16.5818C43.6609 17.5503 42.6589 19.0198 41.7906 20.172C41.2061 19.0198 40.7052 17.7507 40.2209 16.5818C39.5196 14.9119 39.0019 13.8766 38.6679 12.7745C38.3673 11.8059 38.7347 11.6723 39.4528 11.1213C41.5234 9.55159 43.8612 8.46617 45.982 6.96328C47.4849 5.89456 49.2883 4.70895 50.7578 3.60683C50.7578 3.60683 51.6095 3.10586 52.077 2.47131C52.6615 1.66977 51.0083 0.83483 51.0083 0.83483C50.0732 0.684541 49.5555 0.901625 48.9043 1.2022C48.2363 1.50278 47.368 2.18743 46.8002 2.6383C45.5478 3.60683 43.9614 4.75904 42.7257 5.72757C41.2061 6.91319 40.1708 7.64793 38.5009 8.63316L42.7424 2.28762C44.1284 0.500855 40.4547 -0.000109017 39.052 1.88685C37.7495 3.57343 36.8644 5.05962 35.8458 6.59591C33.3911 10.2529 31.3706 14.0937 29.35 18.1181C28.5819 19.6544 27.8304 21.2574 27.1291 22.8438C26.7951 23.612 25.8099 25.382 27.1625 25.5657C30.0513 25.9331 30.5189 24.5638 31.1702 22.9106C32.2389 20.1887 32.5896 19.6878 33.2742 18.0012C33.9422 16.3647 34.4264 15.4296 35.1779 14.0269C35.1946 14.0102 35.4117 13.6595 35.4117 13.6595C35.5452 13.9434 36.4303 16.8824 36.5472 17.2163C37.1483 18.8027 38.2004 22.5098 38.8015 24.1964C39.2357 25.5991 39.3526 25.9999 41.2395 25.9498C42.1747 25.9331 42.5754 25.5657 43.1933 24.3968C43.8111 23.2279 46.4829 18.2517 46.4829 18.2517C47.2845 18.1181 48.4367 17.9177 49.1882 17.7841C49.3217 17.7674 49.6223 17.7006 50.0398 17.6171C50.3237 17.5837 50.5575 17.5336 50.7411 17.4835C50.7578 17.4835 50.7578 17.4835 50.7745 17.4668C51.5093 17.3165 52.4444 17.1328 53.463 16.9325C53.2794 17.8509 52.7116 19.8714 52.5947 20.3891C52.5947 20.3891 51.359 25.1983 52.9621 25.4488C53.964 25.5991 54.4817 25.4321 54.4817 25.4321C56.3519 25.215 56.3853 22.6935 56.3853 22.6935L57.4039 16.1643C58.1387 16.014 58.8734 15.8637 59.5915 15.7301L57.3873 23.1778C57.07 24.2298 56.8362 25.5824 58.7232 25.5824C60.2594 25.6659 60.3596 24.6974 60.3596 24.6974C60.393 24.5471 61.612 20.6229 61.9126 19.2202C62.113 18.3185 62.8311 15.9973 63.1149 15.0622C63.9165 14.9119 64.5176 14.795 64.8015 14.7449C65.1355 14.6948 65.7867 14.5779 66.6384 14.4443C66.6217 15.3127 66.6384 16.515 66.6551 16.682C66.8388 19.3204 66.6384 22.059 67.1894 24.6473C67.2729 25.0648 67.4399 25.5991 67.9743 25.5991C68.6088 25.5991 68.8092 25.5323 69.4772 25.4822C71.4142 25.3152 71.0636 23.3615 70.9467 22.1258C70.8131 20.7565 70.6795 19.6043 70.4958 18.235C70.3455 17.1161 70.2453 15.6466 70.2286 13.8766V13.8432C73.4014 13.3088 76.8246 12.7244 77.3256 12.6409C78.1271 12.4238 78.7951 12.4906 78.6281 10.6537ZM53.8304 14.1605C53.8304 14.1772 53.8137 14.1772 53.8137 14.1939C51.5928 14.6781 49.5054 15.1457 48.3365 15.4129C49.5054 13.4591 54.6487 6.34543 55.4335 5.51049C54.9993 7.71473 54.298 11.8059 53.8304 14.1605ZM66.6551 11.3551V11.472C65.5864 11.6723 64.5844 11.8727 63.7829 12.023C64.8015 9.3846 65.8702 6.14504 66.5048 4.50856C66.4547 5.72757 66.7052 10.1527 66.6551 11.3551ZM35.5118 3.48994C35.8458 2.87208 36.5973 1.65307 35.6621 1.1855C35.1111 0.918324 34.3763 0.751336 33.8086 1.03522C33.341 1.2857 32.9903 1.76996 32.7565 2.22083L29.183 7.84832C28.5986 8.64986 28.0475 9.65178 26.8619 9.78537C26.077 9.86887 25.5093 9.53489 25.526 8.83354C25.5427 8.1155 25.9601 7.16367 26.2774 6.54581C27.2126 4.77574 27.3294 4.17459 28.2312 2.42121C29.0995 0.734637 26.2607 0.350566 25.5594 1.56958C25.0584 2.43791 24.0899 4.07439 23.8728 4.62545C23.472 5.62738 20.4662 10.4032 21.7688 12.2902C23.4386 14.4276 27.8805 11.0545 25.6095 14.9453C23.7726 18.068 22.6204 19.8547 21.0173 22.7436C20.6666 23.3615 20.2325 23.9793 20.1156 24.7141C19.9486 25.7494 21.368 25.7327 21.9858 25.6993C23.0713 25.6158 23.5889 25.1149 24.0231 24.1296C24.2569 23.612 24.5741 22.9774 24.8079 22.4597C26.912 17.8676 29.1496 13.8766 31.9216 9.4347C33.2408 7.33065 34.4097 5.52719 35.5118 3.48994Z" fill="#FC2779"/>
</svg>
