<svg width="88" height="26" viewBox="0 0 88 26" fill="none" xmlns="http://www.w3.org/2000/svg">
<g clip-path="url(#clip0_1350_517)">
<path d="M16.0756 19.3665C15.9317 20.6056 15.1813 21.6089 14.0192 22.1049C13.368 22.3797 12.4983 22.5303 11.8008 22.4855C10.7276 22.4407 9.72153 22.1746 8.78252 21.702C8.45769 21.523 7.95712 21.1874 7.57525 20.8741C7.48108 20.7845 7.4653 20.7397 7.5336 20.6471C7.56361 20.5928 7.63065 20.4934 7.76811 20.2922C7.97771 19.9955 8.00012 19.9563 8.02243 19.9183C8.08948 19.822 8.19163 19.8132 8.2984 19.8893C8.31302 19.9042 8.31302 19.9042 8.3211 19.9114C8.33534 19.927 8.33534 19.927 8.37362 19.9562C8.41316 19.9865 8.44182 20.001 8.44884 20.0181C9.45508 20.8067 10.6264 21.2543 11.8088 21.2991C13.4501 21.2769 14.6296 20.5382 14.8469 19.3965C15.0706 18.1541 14.0925 17.0694 12.1797 16.4646C11.577 16.2856 10.0605 15.6793 9.78049 15.5106C8.46952 14.7419 7.8542 13.7329 7.94365 12.4817C8.07784 10.7525 9.68257 9.46544 11.7107 9.45417C12.611 9.45417 13.5184 9.64204 14.3793 10.0046C14.6898 10.1368 15.244 10.4373 15.4283 10.581C15.5389 10.663 15.5624 10.7525 15.4942 10.8527C15.4715 10.9139 15.4048 11.005 15.2896 11.2002C15.1215 11.4568 15.1153 11.4675 15.0848 11.5239C15.0249 11.6181 14.9394 11.6256 14.8255 11.5582C13.9054 10.9317 12.8675 10.6182 11.7335 10.5958C10.325 10.6182 9.26597 11.4586 9.19777 12.6102C9.18373 13.6446 9.95546 14.3982 11.6268 14.9657C15.026 16.0619 16.3226 17.3427 16.0756 19.3665ZM11.8841 1.51535C14.0926 1.51535 15.8968 3.61308 15.9862 6.24282H7.78725C7.86612 3.61308 9.67564 1.51535 11.8841 1.51535ZM23.3307 6.74104C23.3307 6.46661 23.1185 6.24282 22.8477 6.24282H22.83H17.5299C17.3958 2.77322 14.9166 0 11.8841 0C8.84966 0 6.37692 2.77322 6.24466 6.24282H0.922296C0.655369 6.24889 0.44356 6.46776 0.44356 6.74104C0.44356 6.75683 0.44356 6.76376 0.44356 6.77956H0.4375L1.19345 23.515C1.19345 23.5602 1.2023 23.6059 1.2023 23.6603C1.2023 23.6709 1.20375 23.6741 1.20375 23.6941V23.7197L1.20933 23.7285C1.32312 24.8953 2.16516 25.8255 3.31597 25.871V25.8799H20.1981C20.207 25.8799 20.2122 25.8799 20.2209 25.8799C20.234 25.8799 20.234 25.8799 20.2436 25.8799H20.2786V25.871C21.4458 25.8426 22.4014 24.8953 22.4925 23.7157L22.4976 23.6941C22.4976 23.683 22.4976 23.671 22.4976 23.6603C22.4976 23.6262 22.5065 23.6045 22.5065 23.5691L23.3307 6.76376C23.3307 6.7576 23.3307 6.74807 23.3307 6.74104Z" fill="#EE4D2D"/>
<path d="M81.0869 15.8283C81.4411 14.7062 82.4453 13.9896 83.627 13.9896C84.7852 13.9896 85.8708 14.7637 86.2253 15.8283L86.283 15.8886H81.0764L81.0869 15.8283ZM87.4079 17.426C87.4239 17.426 87.4239 17.426 87.4495 17.426C87.466 17.426 87.466 17.426 87.466 17.426C87.7024 17.4211 87.9082 17.1894 87.9082 16.9523C87.9082 16.9214 87.9073 16.8946 87.905 16.8923C87.9059 16.8923 87.9059 16.8923 87.9059 16.865C87.9059 14.409 85.9889 12.459 83.6265 12.459C81.2701 12.459 79.3741 14.409 79.3741 16.865C79.3741 17.0539 79.3741 17.2409 79.4083 17.4253L79.4111 17.426L79.4274 17.4795C79.5435 18.3444 79.9056 19.1394 80.4962 19.7909C81.1464 20.5207 82.032 21.0314 83.0359 21.21H83.095C83.1541 21.21 83.1629 21.21 83.2132 21.2223C84.5125 21.3863 85.6842 21.21 86.6393 20.7133C86.8757 20.5875 87.1118 20.4401 87.2885 20.3218C87.3481 20.2639 87.4067 20.2091 87.4663 20.1942C87.4663 20.1456 87.4965 20.1456 87.5207 20.1456C87.718 19.909 87.7519 19.8342 87.5975 19.6123C87.4663 19.3757 87.3476 19.1997 87.2299 19.0211C87.1704 18.9631 87.1611 18.9028 87.1118 18.8786C87.1118 18.8448 87.1118 18.8448 87.1108 18.8448C87.1052 18.8448 87.1053 18.8448 87.0983 18.8448H87.0955C86.9722 18.6662 86.8754 18.6662 86.7573 18.7845C86.7512 18.7845 86.6977 18.8448 86.6968 18.8448C85.7526 19.6726 84.4532 19.9525 83.1783 19.6726C82.9371 19.6123 82.7342 19.5397 82.5044 19.436C81.7228 19.0211 81.1464 18.3116 80.9687 17.4837V17.4257L87.4079 17.426ZM70.9291 15.8283C71.2834 14.7062 72.2857 13.9896 73.475 13.9896C74.6395 13.9896 75.7116 14.7637 76.0743 15.8283L76.1261 15.8886H70.9291V15.8283ZM77.2606 17.426C77.2783 17.426 77.2783 17.426 77.3039 17.426C77.3076 17.426 77.3076 17.426 77.3076 17.426C77.5439 17.4211 77.7628 17.1894 77.7628 16.9523C77.7628 16.9214 77.7619 16.8946 77.7596 16.8923C77.76 16.8923 77.76 16.8923 77.76 16.865C77.76 14.409 75.83 12.459 73.472 12.459C71.125 12.459 69.2145 14.409 69.2145 16.865C69.2145 17.0539 69.2145 17.2409 69.2627 17.4253L69.2659 17.426L69.2754 17.4795C69.3936 18.3444 69.7479 19.1394 70.3385 19.7909C70.9863 20.5207 71.8742 21.0314 72.8763 21.21H72.9379C72.9945 21.21 73.0173 21.21 73.0549 21.2223C74.3543 21.3863 75.5355 21.21 76.4806 20.7133C76.7184 20.5875 76.9531 20.4401 77.1299 20.3218C77.1894 20.2639 77.248 20.2091 77.3076 20.1942C77.3076 20.1456 77.3508 20.1456 77.3662 20.1456C77.5723 19.909 77.6021 19.8342 77.4513 19.6123C77.3076 19.3757 77.1894 19.1997 77.0712 19.0211C77.0122 18.9631 77.0112 18.9028 76.9531 18.8786C76.9531 18.8448 76.9531 18.8448 76.9531 18.8448C76.9531 18.8448 76.9531 18.8448 76.9521 18.8448H76.9498C76.8263 18.6662 76.7167 18.6662 76.5986 18.7845L76.5386 18.8448C75.5935 19.6726 74.2943 19.9525 73.0326 19.6726C72.7912 19.6123 72.5823 19.5397 72.3466 19.436C71.576 19.0211 70.9863 18.3116 70.8121 17.4837L70.8109 17.4257L77.2606 17.426ZM63.1901 19.8489C61.5966 19.8489 60.2973 18.608 60.251 17.0105V16.8631C60.2973 15.2974 61.5966 14.0306 63.1901 14.0306C64.7865 14.0306 66.1026 15.3377 66.1026 16.953C66.1028 18.5481 64.7867 19.8489 63.1901 19.8489ZM63.1901 12.4756C62.1319 12.4756 61.1442 12.8307 60.3529 13.4825L60.251 13.5784V12.7534C60.251 12.5168 60.2193 12.4756 59.9886 12.4756H58.9767C58.7481 12.4756 58.7074 12.517 58.7074 12.7534V25.738C58.7074 25.9396 58.7481 25.9983 58.9767 25.9983H59.9886C60.2145 25.9983 60.251 25.9396 60.251 25.738V20.3218L60.3529 20.3822C61.1447 21.0314 62.1319 21.3863 63.1901 21.3863C65.6702 21.3863 67.6783 19.3986 67.6783 16.953C67.6783 14.4696 65.6702 12.4756 63.1901 12.4756ZM52.6636 19.7353C51.0381 19.7353 49.739 18.4564 49.739 16.8655C49.739 15.275 51.0383 13.9957 52.6636 13.9957C54.2865 13.9957 55.5875 15.275 55.5875 16.8655C55.5878 18.4562 54.2865 19.7353 52.6636 19.7353ZM52.6636 12.459C50.1828 12.459 48.1744 14.409 48.1744 16.8711C48.1744 19.318 50.1828 21.2684 52.6636 21.2684C55.1442 21.2684 57.1537 19.318 57.1537 16.8711C57.1537 14.409 55.1442 12.459 52.6636 12.459ZM42.6522 12.5424C41.7612 12.5424 40.8799 12.8272 40.1481 13.3747L40.0604 13.4494V7.41805C40.0604 7.19613 39.9943 7.13745 39.7961 7.13745H38.7247C38.5175 7.13745 38.4586 7.19613 38.4586 7.41805V21.1506C38.4586 21.3863 38.5177 21.4466 38.7247 21.4466H39.7961C39.9943 21.4466 40.0604 21.376 40.0604 21.1506V16.6561C40.0829 15.2473 41.2344 14.1149 42.6524 14.1149C44.0965 14.1149 45.2504 15.2613 45.2504 16.6811V21.1506C45.2504 21.3863 45.2914 21.4466 45.5168 21.4466H46.5801C46.8162 21.4466 46.8452 21.3863 46.8452 21.1506V16.6557C46.845 14.409 44.955 12.5424 42.6522 12.5424ZM27.767 18.9442L27.7644 18.9538C27.6056 19.1771 27.5349 19.2577 27.5032 19.3177C27.3846 19.494 27.4034 19.586 27.59 19.7304C28.0059 20.085 28.5656 20.4399 28.9352 20.6183C29.9687 21.1492 31.0773 21.3863 32.2625 21.4449C33.0252 21.4535 33.9987 21.268 34.708 20.9732C36.0071 20.3819 36.8324 19.2574 36.9729 17.8824C37.2034 15.6334 35.7415 14.233 31.9838 13.1029L31.9813 13.1022C30.2197 12.5168 29.3944 11.7574 29.3941 10.7268C29.4514 9.56108 30.5267 8.67457 31.9836 8.62404C33.1429 8.63126 34.1764 8.96449 35.1995 9.62092C35.4163 9.73945 35.5051 9.7122 35.6531 9.51077C35.6742 9.50286 35.7121 9.44278 35.9152 9.14774H35.9164C36.0953 8.90929 36.1543 8.79287 36.155 8.79287C36.279 8.55628 36.2725 8.45964 36.0427 8.31992C35.8301 8.14202 35.2253 7.84698 34.8845 7.69958C33.9103 7.31443 32.9066 7.13745 31.921 7.13745C29.6577 7.19613 27.887 8.6748 27.7691 10.6043C27.7077 11.9863 28.416 13.1083 29.8933 13.9361C30.3071 14.1727 31.814 14.7462 32.5225 14.9427C34.5307 15.534 35.5914 16.6117 35.3614 17.8989C35.1781 19.0798 33.9536 19.8489 32.2534 19.9036C31.015 19.8489 29.7605 19.4132 28.6828 18.6082C28.6779 18.6075 28.6512 18.5568 28.5944 18.5479C28.5263 18.4899 28.5263 18.4899 28.5067 18.4862C28.2978 18.3113 28.155 18.3146 28.0329 18.5479C28.0054 18.5481 27.8454 18.808 27.767 18.9442Z" fill="#EE4D2D"/>
</g>
<defs>
<clipPath id="clip0_1350_517">
<rect width="87.9412" height="26" fill="white" transform="translate(0.0292969)"/>
</clipPath>
</defs>
</svg>
