<svg width="78" height="26" viewBox="0 0 78 26" fill="none" xmlns="http://www.w3.org/2000/svg">
<g clip-path="url(#clip0_1350_2226)">
<path d="M38.848 5.39682C38.3822 4.84774 38.2076 4.17562 38.3247 3.37832C38.4413 2.58317 38.8136 1.90944 39.44 1.36089C40.067 0.81127 40.7762 0.537265 41.5692 0.537265C42.3617 0.537265 42.9914 0.811807 43.4566 1.36089C43.923 1.9089 44.0971 2.58263 43.9805 3.37832C43.8633 4.17562 43.4916 4.84774 42.8651 5.39682C42.2376 5.94483 41.5273 6.21991 40.7354 6.21991C39.9424 6.21991 39.3138 5.94537 38.848 5.39682ZM32.5254 8.13741C31.5949 8.13741 30.7294 8.89549 30.601 9.8212L29.6554 16.7159C29.5511 17.467 29.1912 18.1182 28.5765 18.6705C27.9614 19.2228 27.2683 19.4989 26.5 19.4989C25.7521 19.4989 25.1461 19.2287 24.6835 18.6871C24.2193 18.1461 24.0415 17.489 24.1479 16.7159L24.7184 12.5317C24.7356 11.6968 24.1092 11.0435 23.2453 11.0435H20.9834C20.1195 11.0435 19.3114 11.6968 19.0986 12.5317L18.5093 16.7159C18.4029 17.4896 18.0419 18.1461 17.4283 18.6871C16.8147 19.2287 16.134 19.4989 15.3872 19.4989C14.6394 19.4989 14.029 19.2228 13.5562 18.6705C13.0829 18.1187 12.8986 17.467 13.0023 16.7159L14.2692 7.56737C14.4035 6.67659 13.8759 5.74605 13.0711 5.36835C13.0711 5.36835 3.53033 1.39152 2.90871 1.13578C2.27904 0.87789 1.56555 1.45599 1.32163 2.41984L0.738697 4.72094C0.494241 5.6848 1.04494 6.78082 1.96097 7.15636L8.35496 9.80293L7.39702 16.7159C7.07574 19.0342 7.61891 21.0178 9.02923 22.6629C10.439 24.3091 12.298 25.1311 14.6071 25.1311C16.7384 25.1311 18.685 24.4138 20.4445 22.9777C21.85 24.4138 23.609 25.1311 25.7194 25.1311C28.028 25.1311 30.1147 24.3091 31.9807 22.6629C33.846 21.0178 34.9399 19.0342 35.2612 16.7159C35.2612 16.7159 36.2632 9.4204 36.2815 9.29307C36.3685 8.65695 35.6797 8.13795 34.7497 8.13795H32.5254V8.13741ZM41.898 8.05897H39.8994C39.0629 8.05897 38.2849 8.73968 38.1694 9.57137C38.1694 9.57137 36.1563 23.9459 36.1471 24.0163C36.0682 24.5874 36.6871 25.0548 37.5231 25.0548H39.5217C40.3577 25.0548 41.1356 24.3741 41.2506 23.5424L43.2734 9.0975C43.3524 8.52639 42.7335 8.05897 41.898 8.05897ZM76.161 9.94853C75.015 8.59623 73.464 7.91982 71.5067 7.91982C69.5489 7.91982 67.7211 8.34856 65.9191 9.90394L67.1951 1.05895C67.2757 0.476554 66.6439 0 65.7918 0H63.7529C62.8992 0 62.1051 0.694146 61.9885 1.54356L58.7128 24.0764C58.6322 24.6583 59.2635 25.1354 60.1167 25.1354H62.1556C62.9932 25.1354 63.7717 24.466 63.9114 23.638H63.9141L64.9402 16.6106C65.1476 15.1906 65.6924 14.1139 66.5757 13.3816C67.4584 12.6488 68.4217 12.2824 69.4635 12.2824C71.5696 12.2824 72.4201 13.6804 72.0123 16.4752L70.9189 24.0549C70.8383 24.6373 71.4702 25.1139 72.3233 25.1139H74.3612C75.2154 25.1139 76.0084 24.4198 76.1266 23.5703L77.3865 15.3593C77.7153 13.105 77.3065 11.3008 76.161 9.94853ZM57.2197 12.4393L58.1734 11.2218C58.5774 10.7061 58.5871 9.91253 58.1976 9.3699C58.0267 9.07601 57.5303 8.79072 57.0768 8.54573L57.0258 8.51779C55.5913 7.73983 54.1815 7.44649 52.3129 7.53782C50.2831 7.63722 48.551 8.23627 47.1654 9.31886C45.7685 10.4095 44.9787 11.7908 44.8197 13.4236C44.658 15.0805 45.2173 16.3173 46.4804 17.1001C47.0805 17.4794 47.629 17.7684 48.1104 17.9597C48.5886 18.1515 49.2924 18.3761 50.2031 18.6286C51.0874 18.8752 51.7611 19.1551 52.2038 19.4576C52.61 19.737 52.7916 20.0362 52.7583 20.3725C52.7245 20.7239 52.5429 21.0081 52.2044 21.2408C51.8525 21.4825 51.3824 21.6201 50.8086 21.648C49.2569 21.7238 47.7972 21.3616 46.4701 20.5713L45.4853 20.026C45.3227 19.9372 45.1385 19.8955 44.9535 19.9057C44.803 19.9121 44.6557 19.951 44.5218 20.0198C44.3879 20.0887 44.2704 20.1857 44.1776 20.3043L42.7614 22.1815C42.6163 22.3738 42.5594 22.6043 42.6002 22.83C42.6395 23.0492 42.7657 23.2383 42.957 23.3662C43.4206 23.7315 43.9026 24.0501 44.3904 24.3139C45.0385 24.6692 45.723 24.9536 46.432 25.1623C47.7698 25.5577 49.0974 25.7264 50.3755 25.6641C52.3022 25.5695 53.9666 24.9624 55.3237 23.8588C56.69 22.7483 57.4674 21.3042 57.6377 19.5666C57.8102 17.8033 57.3046 16.5526 56.1345 15.8477C55.5349 15.492 55.0051 15.2288 54.5592 15.0654C54.116 14.9043 53.3665 14.6765 52.3312 14.3896C51.3082 14.107 50.5743 13.848 50.1483 13.6213C49.7733 13.4214 49.6153 13.1538 49.6518 12.7794C49.7201 12.0772 50.4416 11.6877 51.7944 11.6221C52.8824 11.5684 53.9741 11.8198 55.0336 12.3651C55.2512 12.485 55.4914 12.6284 55.7106 12.7692C55.983 12.9212 56.1925 12.9819 56.3924 12.9717C56.6868 12.9577 56.942 12.7933 57.2197 12.4393Z" fill="#2FB7EC"/>
</g>
<defs>
<clipPath id="clip0_1350_2226">
<rect width="77.2353" height="26" fill="white" transform="translate(0.382324)"/>
</clipPath>
</defs>
</svg>
