<svg width="392" height="293" viewBox="0 0 392 293" fill="none" xmlns="http://www.w3.org/2000/svg">
<mask id="mask0_1527_15790" style="mask-type:alpha" maskUnits="userSpaceOnUse" x="-1" y="0" width="393" height="293">
<rect x="-1" width="393" height="293" fill="#D9D9D9"/>
</mask>
<g mask="url(#mask0_1527_15790)">
<path opacity="0.08" d="M-127.248 -266.853H798.774M-127.248 -143.383H798.774M-127.248 -19.9131H798.774M-127.248 103.557H798.774M-127.248 227.026H798.774M-127.248 381.364H798.774M-127.248 -205.118H798.774M-127.248 -81.6479H798.774M-127.248 41.8218H798.774M-127.248 165.292H798.774M-127.248 288.761H798.774M-127.248 443.098H798.774M-127.248 -235.985H798.774M-127.248 -112.515H798.774M-127.248 10.9543H798.774M-127.248 134.424H798.774M-127.248 257.894H798.774M-127.248 412.231H798.774M-127.248 -174.25H798.774M-127.248 -50.7805H798.774M-127.248 72.6892H798.774M-127.248 196.159H798.774M-127.248 350.496H798.774M-127.248 319.629H798.774M-127.248 473.966H798.774M-127.248 535.701H798.774M-127.248 504.833H798.774M-127.454 545.147L-127.454 -266.647M-3.98438 545.147L-3.98442 -266.647M119.485 545.147L119.485 -266.647M242.955 545.147L242.955 -266.647M366.425 545.147L366.425 -266.647M520.762 545.147L520.762 -266.647M705.966 545.147L705.966 -266.647M-65.7192 545.147L-65.7193 -266.647M57.7505 545.147L57.7504 -266.647M181.22 545.147L181.22 -266.647M304.69 545.147L304.69 -266.647M428.159 545.147L428.159 -266.647M582.497 545.147L582.497 -266.647M767.701 545.147L767.701 -266.647M-96.5866 545.147L-96.5867 -266.647M26.883 545.147L26.883 -266.647M150.353 545.147L150.353 -266.647M273.822 545.147L273.822 -266.647M397.292 545.147L397.292 -266.647M551.629 545.147L551.629 -266.647M736.834 545.147L736.834 -266.647M-34.8518 545.147L-34.8518 -266.647M88.6178 545.147L88.6178 -266.647M212.088 545.147L212.088 -266.647M335.557 545.147L335.557 -266.647M489.894 545.147L489.894 -266.647M675.099 545.147L675.099 -266.647M459.027 545.147L459.027 -266.647M644.231 545.147L644.231 -266.647M613.364 545.147L613.364 -266.647M798.569 545.147L798.568 -266.647" stroke="#635BFF" stroke-width="0.641734"/>
<rect x="366.726" y="72.6698" width="61.2856" height="31.1241" stroke="url(#paint0_linear_1527_15790)" stroke-opacity="0.6" stroke-width="0.962602"/>
<path opacity="0.5" d="M26.6222 320.058V258.131H29.51H23.7344M26.6222 320.058H23.7344M26.6222 320.058H29.51" stroke="#635BFF" stroke-width="0.641734"/>
<g filter="url(#filter0_f_1527_15790)">
<ellipse cx="426" cy="239" rx="87.5" ry="140" fill="url(#paint1_linear_1527_15790)"/>
</g>
<g filter="url(#filter1_f_1527_15790)">
<ellipse cx="446.5" cy="381" rx="140" ry="144.196" fill="#B6DFFF"/>
</g>
<g filter="url(#filter2_f_1527_15790)">
<ellipse cx="67.5" cy="237" rx="77.5" ry="61.4151" fill="url(#paint2_linear_1527_15790)"/>
</g>
<g filter="url(#filter3_f_1527_15790)">
<ellipse cx="167.5" cy="307" rx="112.5" ry="89.1509" fill="#BEE7A2" fill-opacity="0.9"/>
</g>
<g filter="url(#filter4_f_1527_15790)">
<ellipse cx="200" cy="21.5" rx="310" ry="77.5" fill="url(#paint3_linear_1527_15790)"/>
</g>
</g>
<defs>
<filter id="filter0_f_1527_15790" x="219.952" y="-19.5484" width="412.097" height="517.097" filterUnits="userSpaceOnUse" color-interpolation-filters="sRGB">
<feFlood flood-opacity="0" result="BackgroundImageFix"/>
<feBlend mode="normal" in="SourceGraphic" in2="BackgroundImageFix" result="shape"/>
<feGaussianBlur stdDeviation="59.2742" result="effect1_foregroundBlur_1527_15790"/>
</filter>
<filter id="filter1_f_1527_15790" x="62.3583" y="-7.33798" width="768.283" height="776.676" filterUnits="userSpaceOnUse" color-interpolation-filters="sRGB">
<feFlood flood-opacity="0" result="BackgroundImageFix"/>
<feBlend mode="normal" in="SourceGraphic" in2="BackgroundImageFix" result="shape"/>
<feGaussianBlur stdDeviation="122.071" result="effect1_foregroundBlur_1527_15790"/>
</filter>
<filter id="filter2_f_1527_15790" x="-185.472" y="0.113235" width="505.943" height="473.774" filterUnits="userSpaceOnUse" color-interpolation-filters="sRGB">
<feFlood flood-opacity="0" result="BackgroundImageFix"/>
<feBlend mode="normal" in="SourceGraphic" in2="BackgroundImageFix" result="shape"/>
<feGaussianBlur stdDeviation="87.7359" result="effect1_foregroundBlur_1527_15790"/>
</filter>
<filter id="filter3_f_1527_15790" x="-199.717" y="-36.8684" width="734.434" height="687.736" filterUnits="userSpaceOnUse" color-interpolation-filters="sRGB">
<feFlood flood-opacity="0" result="BackgroundImageFix"/>
<feBlend mode="normal" in="SourceGraphic" in2="BackgroundImageFix" result="shape"/>
<feGaussianBlur stdDeviation="127.359" result="effect1_foregroundBlur_1527_15790"/>
</filter>
<filter id="filter4_f_1527_15790" x="-115" y="-61" width="630" height="165" filterUnits="userSpaceOnUse" color-interpolation-filters="sRGB">
<feFlood flood-opacity="0" result="BackgroundImageFix"/>
<feBlend mode="normal" in="SourceGraphic" in2="BackgroundImageFix" result="shape"/>
<feGaussianBlur stdDeviation="2.5" result="effect1_foregroundBlur_1527_15790"/>
</filter>
<linearGradient id="paint0_linear_1527_15790" x1="368.17" y1="88.2318" x2="428.493" y2="88.2318" gradientUnits="userSpaceOnUse">
<stop offset="0.00206637" stop-color="#8FCFFF" stop-opacity="0.45"/>
<stop offset="1" stop-color="#635BFF" stop-opacity="0.69"/>
</linearGradient>
<linearGradient id="paint1_linear_1527_15790" x1="474.643" y1="185.235" x2="322.295" y2="365.269" gradientUnits="userSpaceOnUse">
<stop stop-color="#EFE3FF"/>
<stop offset="1" stop-color="#CAC6FF"/>
</linearGradient>
<linearGradient id="paint2_linear_1527_15790" x1="110.583" y1="213.415" x2="62.267" y2="328.696" gradientUnits="userSpaceOnUse">
<stop stop-color="#EAC7FC"/>
<stop offset="1" stop-color="#CAC6FF"/>
</linearGradient>
<linearGradient id="paint3_linear_1527_15790" x1="200" y1="-56" x2="200" y2="99" gradientUnits="userSpaceOnUse">
<stop stop-color="white"/>
<stop offset="1" stop-color="white" stop-opacity="0"/>
</linearGradient>
</defs>
</svg>
