<svg width="1440" height="406" viewBox="0 0 1440 406" fill="none" xmlns="http://www.w3.org/2000/svg">
<mask id="mask0_96_837" style="mask-type:alpha" maskUnits="userSpaceOnUse" x="0" y="0" width="1440" height="406">
<rect width="1440" height="406" fill="#D9D9D9"/>
</mask>
<g mask="url(#mask0_96_837)">
<path opacity="0.08" d="M-1.00007 -256.321H1442M-1.00005 -63.9208H1442M-1.00005 128.479H1442M-1.00005 320.879H1442M-1.00005 513.279H1442M-1.00005 753.779H1442M-1.00005 -160.121H1442M-1.00005 32.2792H1442M-1.00005 224.679H1442M-1.00005 417.079H1442M-1.00005 609.479H1442M-1.00005 849.979H1442M-1.00005 -208.221H1442M-1.00005 -15.8208H1442M-1.00005 176.579H1442M-1.00005 368.979H1442M-1.00005 561.379H1442M-1.00005 801.879H1442M-1.00005 -112.021H1442M-1.00005 80.3792H1442M-1.00005 272.779H1442M-1.00005 465.179H1442M-1.00005 705.679H1442M-1.00005 657.579H1442M-1.00005 898.079H1442M-1.00004 994.279H1442M-1.00005 946.179H1442M-1.32074 1009L-1.3208 -256M191.079 1009L191.079 -256M383.479 1009L383.479 -256M575.879 1009L575.879 -256M768.279 1009L768.279 -256M1008.78 1009L1008.78 -256M1297.38 1009L1297.38 -256M94.8793 1009L94.8792 -256M287.279 1009L287.279 -256M479.679 1009L479.679 -256M672.079 1009L672.079 -256M864.479 1009L864.479 -256M1104.98 1009L1104.98 -256M1393.58 1009L1393.58 -256M46.7793 1009L46.7792 -256M239.179 1009L239.179 -256M431.579 1009L431.579 -256M623.979 1009L623.979 -256M816.379 1009L816.379 -256M1056.88 1009L1056.88 -256M1345.48 1009L1345.48 -256M142.979 1009L142.979 -256M335.379 1009L335.379 -256M527.779 1009L527.779 -256M720.179 1009L720.179 -256M960.679 1009L960.679 -256M1249.28 1009L1249.28 -256M912.579 1009L912.579 -256M1201.18 1009L1201.18 -256M1153.08 1009L1153.08 -256M1441.68 1009L1441.68 -256" stroke="#635BFF"/>
<rect x="768.75" y="272.75" width="95.5" height="48.5" stroke="url(#paint0_linear_96_837)" stroke-opacity="0.6" stroke-width="1.5"/>
<path opacity="0.5" d="M239.5 321V224.5H244H235M239.5 321H235M239.5 321H244" stroke="#635BFF"/>
<g filter="url(#filter0_f_96_837)">
<ellipse cx="1360" cy="309" rx="155" ry="248" fill="url(#paint1_linear_96_837)"/>
</g>
<g filter="url(#filter1_f_96_837)">
<ellipse cx="1060.5" cy="431" rx="183.5" ry="189" fill="#B6DFFF"/>
</g>
<g filter="url(#filter2_f_96_837)">
<ellipse cx="31.5" cy="287" rx="132.5" ry="105" fill="url(#paint2_linear_96_837)"/>
</g>
<g filter="url(#filter3_f_96_837)">
<ellipse cx="311.5" cy="447" rx="132.5" ry="105" fill="#BEE7A2" fill-opacity="0.9"/>
</g>
<g filter="url(#filter4_f_96_837)">
<ellipse cx="747.5" cy="31.5" rx="816.5" ry="77.5" fill="url(#paint3_linear_96_837)"/>
</g>
</g>
<defs>
<filter id="filter0_f_96_837" x="995" y="-149" width="730" height="916" filterUnits="userSpaceOnUse" color-interpolation-filters="sRGB">
<feFlood flood-opacity="0" result="BackgroundImageFix"/>
<feBlend mode="normal" in="SourceGraphic" in2="BackgroundImageFix" result="shape"/>
<feGaussianBlur stdDeviation="105" result="effect1_foregroundBlur_96_837"/>
</filter>
<filter id="filter1_f_96_837" x="557" y="-78" width="1007" height="1018" filterUnits="userSpaceOnUse" color-interpolation-filters="sRGB">
<feFlood flood-opacity="0" result="BackgroundImageFix"/>
<feBlend mode="normal" in="SourceGraphic" in2="BackgroundImageFix" result="shape"/>
<feGaussianBlur stdDeviation="160" result="effect1_foregroundBlur_96_837"/>
</filter>
<filter id="filter2_f_96_837" x="-401" y="-118" width="865" height="810" filterUnits="userSpaceOnUse" color-interpolation-filters="sRGB">
<feFlood flood-opacity="0" result="BackgroundImageFix"/>
<feBlend mode="normal" in="SourceGraphic" in2="BackgroundImageFix" result="shape"/>
<feGaussianBlur stdDeviation="150" result="effect1_foregroundBlur_96_837"/>
</filter>
<filter id="filter3_f_96_837" x="-121" y="42" width="865" height="810" filterUnits="userSpaceOnUse" color-interpolation-filters="sRGB">
<feFlood flood-opacity="0" result="BackgroundImageFix"/>
<feBlend mode="normal" in="SourceGraphic" in2="BackgroundImageFix" result="shape"/>
<feGaussianBlur stdDeviation="150" result="effect1_foregroundBlur_96_837"/>
</filter>
<filter id="filter4_f_96_837" x="-74" y="-51" width="1643" height="165" filterUnits="userSpaceOnUse" color-interpolation-filters="sRGB">
<feFlood flood-opacity="0" result="BackgroundImageFix"/>
<feBlend mode="normal" in="SourceGraphic" in2="BackgroundImageFix" result="shape"/>
<feGaussianBlur stdDeviation="2.5" result="effect1_foregroundBlur_96_837"/>
</filter>
<linearGradient id="paint0_linear_96_837" x1="771" y1="297" x2="865" y2="297" gradientUnits="userSpaceOnUse">
<stop offset="0.00206637" stop-color="#8FCFFF" stop-opacity="0.45"/>
<stop offset="1" stop-color="#635BFF" stop-opacity="0.69"/>
</linearGradient>
<linearGradient id="paint1_linear_96_837" x1="1446.17" y1="213.76" x2="1176.29" y2="532.676" gradientUnits="userSpaceOnUse">
<stop stop-color="#EFE3FF"/>
<stop offset="1" stop-color="#CAC6FF"/>
</linearGradient>
<linearGradient id="paint2_linear_96_837" x1="105.159" y1="246.676" x2="22.5533" y2="443.77" gradientUnits="userSpaceOnUse">
<stop stop-color="#EAC7FC"/>
<stop offset="1" stop-color="#CAC6FF"/>
</linearGradient>
<linearGradient id="paint3_linear_96_837" x1="747.5" y1="-46" x2="747.5" y2="109" gradientUnits="userSpaceOnUse">
<stop stop-color="white"/>
<stop offset="1" stop-color="white" stop-opacity="0"/>
</linearGradient>
</defs>
</svg>
